<svg xmlns="http://www.w3.org/2000/svg" xmlns:xlink="http://www.w3.org/1999/xlink" width="500" zoomAndPan="magnify" viewBox="0 0 375 374.999991" height="500" preserveAspectRatio="xMidYMid meet" version="1.0"><defs><clipPath id="0ceca412da"><path d="M 107 86.5625 L 163 86.5625 L 163 110 L 107 110 Z M 107 86.5625 " clip-rule="nonzero"/></clipPath></defs><path fill="#4b4237" d="M 118.527344 93.769531 C 108.632812 95.859375 92.253906 99.488281 75.09375 111.679688 C 67.867188 116.8125 54.941406 126.226562 46.4375 143.472656 C 40.945312 154.617188 39.433594 164.710938 38.824219 168.992188 C 37.726562 176.753906 38.730469 177.082031 38.824219 195.410156 C 38.9375 217.023438 37.589844 225.914062 42.855469 228.992188 C 44.359375 229.867188 46.84375 230.171875 51.8125 230.78125 C 55.742188 231.261719 58.824219 231.277344 62.554688 231.230469 C 77.769531 231.042969 76.679688 230.230469 78.675781 230.78125 C 86.011719 232.800781 85.808594 239.613281 95.691406 250.035156 C 97.957031 252.421875 102.605469 255.839844 111.8125 262.570312 C 126.710938 273.464844 134.15625 278.914062 136.4375 280.03125 C 153.632812 288.445312 170.558594 286.898438 175.394531 286.300781 C 184.605469 285.164062 191.292969 282.386719 204.496094 276.898438 C 211.703125 273.902344 213.753906 272.59375 225.09375 267.046875 C 264.160156 247.929688 268.386719 249.457031 276.871094 246.421875 C 280.132812 245.257812 281.542969 243.609375 285.539062 242.421875 C 286.902344 242.015625 286.605469 242.207031 291.171875 241.085938 C 296.335938 239.820312 296.570312 239.613281 297.628906 239.734375 C 299.714844 239.976562 301.28125 241.179688 304.402344 243.582031 C 306.855469 245.464844 307.203125 246.132812 309.269531 247.792969 C 309.269531 247.792969 312.5 250.453125 316.433594 252.273438 C 322.765625 255.199219 332.777344 256.910156 335.6875 252.722656 C 337.40625 250.242188 336.050781 246.550781 335.6875 245.558594 C 333.226562 238.863281 326.144531 236.0625 320.03125 233.363281 C 308.136719 228.117188 330.683594 236.835938 288.894531 216.941406 C 266.335938 206.199219 266.039062 206.648438 264.046875 204.363281 C 257.015625 196.3125 259.90625 189.859375 254.644531 166.304688 C 251.628906 152.804688 249.917969 145.125 245.242188 136.300781 C 234.78125 116.558594 217.796875 106.753906 213.003906 104.066406 C 199.476562 96.480469 188.066406 95.082031 170.019531 92.871094 C 156.410156 91.207031 139.683594 89.304688 118.527344 93.769531 Z M 118.527344 93.769531 " fill-opacity="1" fill-rule="nonzero"/><path stroke-linecap="butt" transform="matrix(0.295516, 0, 0, 0.295516, -66.540584, -2.622781)" fill="none" stroke-linejoin="miter" d="M 1110.746542 696.813188 C 1008.105736 699.602269 898.868953 698.862039 801.674124 734.736752 C 703.342514 771.034454 598.639639 790.187902 493.831017 791.073534 " stroke="#ffffff" stroke-width="3" stroke-opacity="1" stroke-miterlimit="10"/><path fill="#4b4237" d="M 120.402344 93.789062 C 123.113281 95.082031 128.808594 97.339844 136.246094 96.914062 C 142.359375 96.5625 146.988281 94.542969 149.539062 93.195312 C 149.71875 92.636719 149.894531 92.082031 150.074219 91.523438 C 148.589844 90.539062 146.347656 89.28125 143.410156 88.40625 C 141.980469 87.980469 138.300781 87.023438 133.558594 87.507812 C 131.488281 87.722656 128.667969 88.042969 125.5 89.75 C 123.078125 91.054688 121.414062 92.65625 120.402344 93.789062 Z M 120.402344 93.789062 " fill-opacity="1" fill-rule="nonzero"/><g clip-path="url(#0ceca412da)"><path stroke-linecap="butt" transform="matrix(0.295516, 0, 0, 0.295516, -66.540584, -2.622781)" fill="none" stroke-linejoin="miter" d="M 632.597685 326.248816 C 641.771248 330.624103 661.043663 338.264333 686.211479 336.823529 C 706.898261 335.633873 722.562054 328.799965 731.193663 324.23962 C 731.801709 322.34939 732.396537 320.472379 733.004583 318.582149 C 727.981594 315.251114 720.394238 310.994793 710.454008 308.033873 C 705.616077 306.593068 693.164353 303.354563 677.117226 304.993643 C 670.111479 305.720655 660.5678 306.804563 649.847685 312.580999 C 641.652283 316.995942 636.021248 322.415482 632.597685 326.248816 Z M 632.597685 326.248816 " stroke="#ffffff" stroke-width="3" stroke-opacity="1" stroke-miterlimit="10"/></g></svg>