<svg xmlns="http://www.w3.org/2000/svg" xmlns:xlink="http://www.w3.org/1999/xlink" width="500" zoomAndPan="magnify" viewBox="0 0 375 374.999991" height="500" preserveAspectRatio="xMidYMid meet" version="1.0"><defs><filter x="0%" y="0%" width="100%" height="100%" id="bb1209b7a5"><feColorMatrix values="0 0 0 0 1 0 0 0 0 1 0 0 0 0 1 0 0 0 1 0" color-interpolation-filters="sRGB"/></filter><clipPath id="c1165358fe"><path d="M 66 37.5 L 310.5 37.5 L 310.5 337.5 L 66 337.5 Z M 66 37.5 " clip-rule="nonzero"/></clipPath><mask id="f5fd4c36a1"><g filter="url(#bb1209b7a5)"><rect x="-37.5" width="450" fill="#000000" y="-37.499999" height="449.999989" fill-opacity="0.42"/></g></mask><clipPath id="27fe8d379e"><path d="M 105 48 L 216 48 L 216 218.878906 L 105 218.878906 Z M 105 48 " clip-rule="nonzero"/></clipPath><clipPath id="83329b7a07"><rect x="0" width="217" y="0" height="219"/></clipPath><clipPath id="fbebe3c6e5"><path d="M 66 37.5 L 310.5 37.5 L 310.5 337.5 L 66 337.5 Z M 66 37.5 " clip-rule="nonzero"/></clipPath><mask id="f4c96eb1b6"><g filter="url(#bb1209b7a5)"><rect x="-37.5" width="450" fill="#000000" y="-37.499999" height="449.999989" fill-opacity="0.42"/></g></mask><clipPath id="126357ccd3"><path d="M 105 48 L 216 48 L 216 218.878906 L 105 218.878906 Z M 105 48 " clip-rule="nonzero"/></clipPath><clipPath id="5591b958f0"><rect x="0" width="217" y="0" height="219"/></clipPath></defs><g clip-path="url(#c1165358fe)"><path fill="#a49694" d="M 200.195312 247.472656 C 224.628906 277.535156 254.867188 302.625 286.667969 324.722656 C 292.355469 328.675781 297.386719 333.226562 302.953125 337.359375 C 308.042969 317.597656 310.5 297.296875 310.441406 276.875 C 310.261719 238.011719 302.175781 199.085938 284.75 164.355469 C 281.515625 157.886719 278.042969 151.601562 274.089844 145.550781 C 272.113281 142.496094 270.078125 139.503906 267.863281 136.570312 C 266.84375 135.191406 265.707031 133.875 264.570312 132.558594 C 264.03125 131.957031 261.035156 129.324219 261.457031 128.425781 C 262.414062 126.570312 271.214844 128.90625 272.59375 129.203125 C 274.332031 129.5625 276.488281 130.519531 278.222656 130.519531 C 279.898438 130.519531 279.839844 128.726562 279.839844 127.527344 C 279.78125 125.429688 280.257812 123.515625 280.558594 121.417969 C 282.234375 111 280.679688 101.058594 279.71875 90.640625 C 278.761719 80.160156 277.921875 69.621094 275.230469 59.441406 C 273.613281 53.453125 271.214844 47.644531 269.660156 41.59375 C 269.300781 40.21875 268.820312 38.71875 267.5625 38.121094 C 266.546875 37.640625 265.347656 38 264.332031 38.300781 C 249.777344 42.734375 235.707031 48.421875 221.933594 54.710938 C 215.285156 57.761719 207.140625 60.457031 202.292969 66.207031 C 200.015625 68.960938 198.277344 72.136719 196.902344 75.429688 C 195.464844 78.78125 194.027344 81.117188 190.074219 80.996094 C 183.789062 80.816406 177.679688 80.277344 171.390625 81.058594 C 168.335938 81.476562 167.796875 80.398438 165.761719 78.421875 C 164.503906 77.226562 163.1875 76.085938 161.871094 75.007812 C 159.234375 72.792969 156.421875 70.757812 153.546875 68.839844 C 147.976562 65.070312 142.046875 61.835938 135.941406 58.960938 C 123.84375 53.273438 111.148438 49.078125 98.511719 44.886719 C 97.4375 44.527344 96.296875 44.167969 95.28125 44.648438 C 94.261719 45.066406 93.722656 46.144531 93.242188 47.164062 C 80.667969 73.691406 76.597656 104.171875 81.746094 133.035156 C 81.925781 133.996094 82.164062 135.074219 82.882812 135.671875 C 83.902344 136.507812 85.460938 136.210938 86.714844 135.851562 C 92.945312 134.113281 99.113281 132.378906 105.339844 130.699219 C 110.25 129.324219 114.921875 128.125 119.773438 126.570312 C 110.429688 132.257812 102.707031 140.460938 97.496094 150.101562 C 95.039062 154.652344 93.183594 159.445312 90.789062 163.996094 C 88.8125 167.707031 86.535156 171.242188 84.679688 175.015625 C 81.265625 181.839844 79.171875 189.207031 77.136719 196.570312 C 68.75 225.976562 64.5 256.816406 68.273438 287.234375 C 69.828125 299.8125 70.847656 312.566406 72.105469 325.203125 C 83.125 317.296875 94.140625 309.332031 105.21875 301.425781 C 113.183594 295.738281 121.269531 289.871094 128.695312 283.402344 C 136.359375 276.636719 142.886719 268.972656 148.996094 260.765625 C 149.054688 260.707031 149.113281 260.585938 149.175781 260.527344 C 161.390625 244.058594 170.734375 225.316406 178.757812 206.511719 C 187.320312 186.453125 185.523438 163.757812 185.644531 141.957031 C 185.644531 137.167969 185.523438 132.199219 183.1875 128.066406 C 180.132812 122.738281 173.847656 119.5625 171.8125 113.8125 C 171.390625 112.617188 171.332031 111 172.46875 110.402344 C 173.007812 110.101562 173.667969 110.160156 174.324219 110.28125 C 179.535156 110.9375 184.746094 111.65625 190.015625 112.316406 C 190.734375 112.4375 191.511719 112.496094 192.171875 112.914062 C 193.367188 113.695312 193.789062 115.3125 193.488281 116.6875 C 193.1875 118.066406 192.410156 119.261719 191.570312 120.460938 C 174.503906 145.433594 176.660156 179.746094 181.570312 209.566406 C 183.96875 223.460938 191.210938 236.453125 200.195312 247.472656 Z M 200.195312 247.472656 " fill-opacity="1" fill-rule="nonzero"/></g><g mask="url(#f5fd4c36a1)"><g transform="matrix(1, 0, 0, 1, 80, 54)"><g clip-path="url(#83329b7a07)"><path fill="#a49694" d="M 129.535156 21.667969 C 139.835938 10.710938 153.132812 1.425781 168.160156 0.648438 C 171.574219 0.46875 175.046875 0.769531 178.164062 2.085938 C 181.277344 3.402344 184.03125 5.859375 185.226562 9.03125 C 187.203125 14.480469 184.152344 20.46875 184.269531 26.21875 C 184.449219 34.183594 190.4375 40.949219 191.933594 48.796875 C 192.714844 52.988281 191.816406 57.957031 188.164062 60.234375 C 185.289062 61.96875 181.574219 61.492188 178.28125 60.953125 C 172.710938 59.992188 167.144531 59.09375 161.933594 56.9375 C 155.347656 54.246094 149.65625 49.8125 143.308594 46.757812 C 137.441406 43.945312 130.972656 42.269531 124.507812 41.910156 C 120.792969 41.730469 109.476562 39.09375 114.867188 33.164062 C 116.601562 31.25 120.136719 30.53125 122.230469 28.914062 C 124.867188 26.757812 127.203125 24.183594 129.535156 21.667969 Z M 129.535156 21.667969 " fill-opacity="1" fill-rule="nonzero"/><path fill="#a49694" d="M 34.382812 12.507812 C 27.375 10.949219 19.292969 10.050781 13.601562 14.480469 C 10.789062 16.699219 8.871094 20.710938 10.488281 23.945312 C 11.808594 26.636719 15.039062 27.777344 17.976562 28.195312 C 20.910156 28.613281 24.023438 28.496094 26.777344 29.753906 C 29.472656 31.011719 31.6875 34.183594 30.492188 36.9375 C 29.53125 39.214844 26.71875 40.230469 25.519531 42.386719 C 24.023438 45.023438 25.460938 48.496094 27.914062 50.234375 C 30.371094 51.96875 33.542969 52.328125 36.539062 52.449219 C 47.558594 52.925781 58.636719 51.011719 68.816406 46.820312 C 75.222656 44.183594 81.511719 40.652344 88.398438 40.710938 C 88.816406 40.710938 88.695312 35.023438 88.21875 34.242188 C 87.257812 32.746094 84.566406 31.910156 83.066406 31.070312 C 77.976562 28.253906 72.828125 25.621094 67.496094 23.285156 C 56.839844 18.613281 45.699219 14.960938 34.382812 12.507812 Z M 34.382812 12.507812 " fill-opacity="1" fill-rule="nonzero"/><path fill="#a49694" d="M 41.628906 83.886719 C 36.660156 87.660156 31.566406 91.671875 28.875 97.300781 C 22.824219 109.875 31.027344 124.785156 29.054688 138.558594 C 28.035156 145.386719 24.382812 151.855469 18.992188 156.226562 C 14.859375 159.578125 9.710938 161.792969 6.175781 165.746094 C 1.6875 170.835938 0.488281 178.203125 1.984375 184.789062 C 3.484375 191.378906 7.375 197.1875 12.105469 202.035156 C 15.820312 205.867188 20.429688 209.402344 25.820312 209.761719 C 31.988281 210.238281 37.675781 206.527344 42.707031 202.933594 C 48.636719 198.683594 54.683594 194.132812 58.277344 187.722656 C 63.1875 178.863281 62.765625 167.601562 68.695312 159.398438 C 74.863281 150.894531 86.660156 147.542969 91.992188 138.441406 C 94.625 133.949219 95.285156 128.558594 95.644531 123.410156 C 96.542969 111.015625 96.300781 98.5 94.925781 86.164062 C 94.207031 79.933594 93.1875 73.707031 91.929688 67.597656 C 90.734375 61.96875 89.894531 54.363281 87.019531 49.394531 C 83.007812 51.191406 79.175781 55.144531 75.640625 57.835938 C 71.929688 60.710938 68.15625 63.585938 64.445312 66.460938 C 56.777344 72.328125 49.171875 78.078125 41.628906 83.886719 Z M 41.628906 83.886719 " fill-opacity="1" fill-rule="nonzero"/><g clip-path="url(#27fe8d379e)"><path fill="#a49694" d="M 105.644531 118.078125 C 105.042969 138.621094 112.769531 158.5 122.351562 176.644531 C 126.722656 184.851562 132.410156 193.652344 141.453125 195.808594 C 148.21875 197.425781 155.226562 194.910156 162.113281 194.550781 C 171.996094 194.011719 182.054688 198.144531 188.703125 205.507812 C 191.214844 208.324219 193.3125 211.558594 196.066406 214.132812 C 198.820312 216.707031 202.535156 218.683594 206.308594 218.085938 C 210.4375 217.425781 213.613281 213.652344 214.75 209.582031 C 215.949219 205.507812 215.527344 201.199219 214.992188 197.066406 C 212.953125 180.539062 209.480469 164.25 206.007812 148.023438 C 203.253906 135.027344 200.4375 122.03125 195.828125 109.636719 C 191.214844 97.242188 184.570312 85.324219 174.988281 76.101562 C 159.359375 61.011719 135.945312 52.6875 115.046875 48.316406 C 119.957031 56.339844 116.242188 61.132812 114.6875 69.273438 C 112.710938 79.636719 110.074219 89.753906 107.980469 100.113281 C 106.78125 106.042969 105.824219 112.03125 105.644531 118.078125 Z M 105.644531 118.078125 " fill-opacity="1" fill-rule="nonzero"/></g></g></g></g><path fill="#ffffff" d="M 213.96875 105.609375 C 208.398438 103.875 202.890625 101.957031 197.5 99.742188 C 196.183594 99.203125 194.625 98.304688 194.625 96.867188 C 194.625 95.910156 195.464844 95.070312 196.363281 94.710938 C 197.261719 94.351562 198.277344 94.472656 199.238281 94.53125 C 204.085938 95.070312 208.757812 96.628906 213.429688 98.003906 C 216.960938 99.023438 224.027344 101.957031 227.5 100.398438 C 227.023438 99.261719 225.824219 98.421875 224.566406 98.183594 C 225.464844 97.464844 226.664062 97.226562 227.800781 96.988281 C 228.9375 96.746094 230.136719 96.566406 231.09375 95.847656 C 232.054688 95.128906 232.59375 93.8125 232.054688 92.792969 C 231.394531 91.539062 229.65625 91.476562 228.21875 91.539062 C 221.511719 91.957031 214.808594 92.433594 208.101562 92.855469 C 205.105469 92.734375 201.933594 92.734375 198.9375 92.613281 C 198.160156 92.554688 197.261719 92.554688 196.601562 92.078125 C 195.523438 91.359375 195.285156 89.800781 195.824219 88.664062 C 196.363281 87.523438 197.5 86.746094 198.757812 86.386719 C 199.957031 86.027344 201.273438 86.027344 202.53125 85.96875 C 208.101562 85.910156 213.667969 85.609375 219.058594 84.230469 C 224.449219 82.792969 229.597656 80.160156 233.191406 75.90625 C 229.417969 75.609375 226.003906 77.945312 222.652344 79.679688 C 218.699219 81.714844 214.386719 83.09375 209.957031 83.691406 C 211.453125 82.496094 213.011719 81.296875 214.269531 79.859375 C 215.523438 78.421875 216.542969 76.6875 216.84375 74.769531 C 210.554688 78.601562 204.148438 82.195312 197.558594 85.550781 C 196.902344 85.847656 196.125 86.148438 195.585938 85.789062 C 194.925781 85.371094 194.984375 84.410156 195.046875 83.632812 C 195.105469 82.855469 194.867188 81.535156 194.085938 81.417969 C 193.96875 90.820312 193.789062 100.21875 193.667969 109.621094 C 194.6875 108.066406 194.328125 106.027344 194.207031 104.113281 C 194.148438 103.035156 194.265625 101.835938 195.105469 101.238281 C 195.703125 100.820312 196.484375 100.878906 197.199219 101 C 200.253906 101.539062 202.652344 103.214844 205.40625 104.351562 C 208.101562 105.488281 211.214844 105.847656 214.027344 106.746094 C 219.957031 108.605469 225.707031 111.117188 231.09375 114.171875 C 236.066406 116.988281 240.796875 120.222656 245.765625 123.035156 C 250.738281 125.789062 256.125 128.125 261.816406 128.726562 C 257.265625 127.046875 252.832031 125.011719 248.582031 122.617188 C 244.628906 120.339844 240.855469 117.765625 236.84375 115.550781 C 229.835938 111.597656 221.8125 108.003906 213.96875 105.609375 Z M 213.96875 105.609375 " fill-opacity="1" fill-rule="nonzero"/><path fill="#ffffff" d="M 168.757812 104.113281 C 168.578125 103.214844 168.335938 102.257812 168.15625 101.359375 C 161.929688 102.855469 156.539062 106.207031 151.152344 109.503906 C 145.101562 113.214844 138.996094 116.988281 132.945312 120.699219 C 128.574219 123.394531 124.082031 126.089844 119.054688 126.929688 C 127.019531 123.695312 134.5625 119.382812 141.507812 114.292969 C 144.503906 112.136719 147.675781 110.28125 150.671875 108.066406 C 153.785156 105.789062 157.078125 103.695312 160.851562 102.617188 C 162.828125 102.078125 164.984375 101.777344 166.601562 100.519531 C 168.21875 99.261719 168.996094 96.566406 167.5 95.191406 C 166.121094 93.871094 163.847656 94.53125 162.050781 95.191406 C 158.21875 96.6875 154.324219 98.242188 150.492188 99.742188 C 147.558594 100.878906 144.625 102.015625 141.570312 102.675781 C 140.910156 102.796875 140.074219 102.796875 139.832031 102.195312 C 139.652344 101.65625 140.074219 101.117188 140.492188 100.820312 C 141.75 99.742188 143.1875 98.960938 144.742188 98.421875 C 143.1875 98.066406 141.988281 96.6875 141.6875 95.128906 C 141.390625 93.574219 142.109375 91.898438 143.367188 91 C 144.5625 90.160156 146.179688 89.980469 147.675781 90.21875 C 149.175781 90.460938 150.550781 91.058594 151.988281 91.476562 C 155.28125 92.554688 158.816406 92.972656 162.289062 93.09375 C 163.308594 93.152344 164.386719 93.152344 165.34375 92.792969 C 166.300781 92.433594 167.199219 91.65625 167.378906 90.699219 C 167.617188 89.5 166.898438 88.304688 165.882812 87.644531 C 164.863281 86.984375 163.667969 86.746094 162.46875 86.507812 C 149.355469 83.992188 136.058594 81.777344 122.707031 82.433594 C 122.046875 82.496094 121.089844 82.195312 121.269531 81.535156 C 121.328125 81.238281 121.628906 81.058594 121.929688 80.9375 C 123.664062 80.039062 125.339844 79.140625 127.078125 78.242188 C 129.113281 77.164062 131.148438 76.148438 133.367188 75.609375 C 138.816406 74.351562 144.445312 76.507812 149.414062 79.140625 C 154.382812 81.777344 159.234375 84.890625 164.804688 85.667969 C 165.703125 85.789062 166.660156 85.847656 167.4375 85.429688 C 168.039062 85.070312 168.398438 83.871094 168.9375 83.871094 C 169.414062 87.105469 169.117188 90.640625 169.054688 93.933594 C 169.054688 97.285156 168.9375 100.699219 168.757812 104.113281 Z M 168.757812 104.113281 " fill-opacity="1" fill-rule="nonzero"/><path fill="#ffffff" d="M 210.496094 110.402344 C 216.902344 113.933594 224.269531 115.429688 230.734375 118.785156 C 233.667969 120.28125 236.542969 122.378906 237.800781 125.492188 C 238.402344 126.988281 238.519531 128.605469 238.941406 130.222656 C 239.359375 131.777344 240.078125 133.394531 241.453125 134.234375 C 231.695312 130.222656 224.566406 121.71875 216.183594 115.371094 C 211.8125 112.078125 207.082031 109.261719 202.230469 106.6875 C 201.574219 106.328125 196.0625 103.992188 196.960938 103.035156 C 197.621094 102.257812 202.53125 105.429688 203.308594 105.910156 C 205.644531 107.40625 207.980469 109.023438 210.496094 110.402344 Z M 210.496094 110.402344 " fill-opacity="1" fill-rule="nonzero"/><path fill="#ffffff" d="M 241.632812 146.691406 C 246.425781 151.359375 251.214844 156.03125 255.765625 160.882812 C 257.203125 162.4375 258.640625 164.054688 259.359375 166.03125 C 260.078125 168.007812 259.898438 170.464844 258.402344 171.960938 C 256.84375 173.515625 254.328125 173.578125 252.234375 172.917969 C 248.519531 171.722656 245.828125 168.726562 243.371094 165.671875 C 235.886719 156.210938 229.835938 145.671875 223.308594 135.550781 C 217.441406 126.449219 211.035156 118.066406 203.25 110.519531 C 202.113281 109.382812 202.949219 109.144531 203.90625 110.101562 C 205.046875 111.117188 206.125 112.257812 207.203125 113.335938 C 209.417969 115.492188 211.574219 117.585938 213.789062 119.742188 C 218.101562 123.933594 222.472656 128.1875 226.785156 132.378906 C 231.753906 137.109375 236.722656 141.898438 241.632812 146.691406 Z M 241.632812 146.691406 " fill-opacity="1" fill-rule="nonzero"/><path fill="#ffffff" d="M 207.621094 124.292969 C 210.316406 128.007812 213.308594 131.480469 215.703125 135.371094 C 218.339844 139.5625 220.195312 144.234375 222.113281 148.785156 C 223.910156 153.277344 225.765625 157.828125 226.066406 162.679688 C 226.183594 164.476562 225.765625 166.691406 224.089844 167.289062 C 223.128906 167.648438 222.050781 167.289062 221.273438 166.691406 C 220.496094 166.089844 219.898438 165.253906 219.417969 164.355469 C 217.441406 160.941406 216.0625 157.167969 214.746094 153.457031 C 213.191406 149.144531 211.632812 144.773438 210.375 140.34375 C 209.355469 136.808594 208.519531 133.214844 207.320312 129.742188 C 205.285156 123.875 202.292969 118.425781 199.777344 112.734375 C 199.175781 111.296875 198.578125 109.921875 198.039062 108.425781 C 197.738281 107.644531 197.082031 105.191406 198.277344 106.867188 C 199.117188 108.003906 199.476562 109.863281 200.074219 111.179688 C 200.675781 112.554688 201.332031 113.875 202.050781 115.191406 C 203.667969 118.484375 205.523438 121.480469 207.621094 124.292969 Z M 207.621094 124.292969 " fill-opacity="1" fill-rule="nonzero"/><path fill="#ffffff" d="M 203.789062 184.238281 C 203.667969 186.390625 203.1875 189.085938 201.152344 189.804688 C 199.535156 190.40625 197.679688 189.265625 196.839844 187.769531 C 196.003906 186.273438 195.882812 184.476562 195.765625 182.738281 C 194.984375 167.707031 194.148438 152.617188 195.644531 137.648438 C 196.484375 129.203125 198.097656 120.582031 197.019531 112.078125 C 196.78125 110.101562 195.703125 107.765625 195.765625 105.847656 C 197.261719 106.628906 197.378906 109.261719 197.738281 110.699219 C 198.339844 113.273438 198.816406 115.910156 199.355469 118.484375 C 200.375 123.753906 201.214844 129.023438 201.871094 134.292969 C 203.25 144.894531 204.027344 155.550781 204.148438 166.210938 C 204.207031 172.199219 204.085938 178.246094 203.789062 184.238281 Z M 203.789062 184.238281 " fill-opacity="1" fill-rule="nonzero"/><path fill="#ffffff" d="M 169.296875 121.058594 C 171.332031 131.539062 171.871094 142.199219 172.289062 152.859375 C 172.410156 156.628906 172.410156 160.820312 169.894531 163.636719 C 168.816406 164.773438 167.257812 165.613281 165.703125 165.375 C 164.085938 165.074219 162.886719 163.636719 162.109375 162.140625 C 159.414062 157.050781 159.894531 150.820312 161.390625 145.253906 C 162.828125 139.683594 165.164062 134.292969 166 128.605469 C 166.601562 124.652344 166.480469 120.699219 166.421875 116.6875 C 166.421875 113.15625 166 108.425781 167.5 105.191406 C 167.976562 105.96875 167.679688 107.046875 167.617188 107.945312 C 167.5 109.382812 167.617188 110.878906 167.738281 112.316406 C 168.039062 115.25 168.695312 118.125 169.296875 121.058594 Z M 169.296875 121.058594 " fill-opacity="1" fill-rule="nonzero"/><path fill="#ffffff" d="M 157.378906 133.816406 C 155.164062 141.597656 152.589844 149.265625 149.953125 156.929688 C 147.078125 165.375 144.265625 173.875 141.390625 182.320312 C 140.730469 184.296875 139.59375 186.691406 137.496094 186.691406 C 136.121094 186.691406 134.921875 185.554688 134.445312 184.238281 C 133.964844 182.917969 134.085938 181.480469 134.203125 180.105469 C 134.804688 174.773438 135.941406 169.503906 137.738281 164.414062 C 139.773438 158.605469 142.46875 153.097656 145.222656 147.648438 C 150.851562 136.328125 156.480469 125.011719 162.167969 113.753906 C 163.726562 110.699219 165.105469 107.40625 166.839844 104.472656 C 163.726562 111.898438 161.332031 119.441406 159.175781 127.167969 C 158.636719 129.382812 158.039062 131.597656 157.378906 133.816406 Z M 157.378906 133.816406 " fill-opacity="1" fill-rule="nonzero"/><path fill="#ffffff" d="M 152.769531 128.84375 C 152.46875 129.742188 152.167969 130.640625 151.511719 131.300781 C 150.851562 131.957031 149.714844 132.199219 148.996094 131.660156 C 148.515625 131.300781 148.335938 130.699219 148.277344 130.101562 C 147.738281 127.40625 148.335938 124.53125 149.535156 122.078125 C 150.671875 119.5625 152.410156 117.347656 154.265625 115.3125 C 155.820312 113.574219 157.4375 111.898438 159.175781 110.339844 C 159.714844 109.863281 163.605469 106.507812 162.410156 108.902344 C 160.253906 113.15625 157.679688 117.046875 155.761719 121.417969 C 154.5625 123.8125 153.605469 126.269531 152.769531 128.84375 Z M 152.769531 128.84375 " fill-opacity="1" fill-rule="nonzero"/><path fill="#ffffff" d="M 138.996094 132.558594 C 132.527344 143.875 128.097656 156.269531 123.484375 168.488281 C 123.125 169.386719 122.765625 170.34375 122.109375 171.0625 C 121.449219 171.78125 120.371094 172.199219 119.472656 171.839844 C 118.515625 171.480469 118.09375 170.402344 117.796875 169.445312 C 116.121094 164.054688 116.597656 158.066406 119.171875 153.039062 C 116.898438 152.796875 115.640625 149.921875 116.238281 147.707031 C 116.835938 145.492188 118.632812 143.816406 120.371094 142.257812 C 132.109375 131.71875 143.785156 121.179688 155.523438 110.640625 C 157.796875 108.605469 160.972656 105.488281 164.207031 105.308594 C 162.46875 106.867188 160.191406 107.945312 158.398438 109.382812 C 156.480469 110.878906 154.683594 112.496094 152.949219 114.234375 C 149.472656 117.644531 146.359375 121.480469 143.605469 125.492188 C 141.867188 127.765625 140.371094 130.160156 138.996094 132.558594 Z M 138.996094 132.558594 " fill-opacity="1" fill-rule="nonzero"/><g clip-path="url(#fbebe3c6e5)"><path fill="#a49694" d="M 200.195312 247.472656 C 224.628906 277.535156 254.867188 302.625 286.667969 324.722656 C 292.355469 328.675781 297.386719 333.226562 302.953125 337.359375 C 308.042969 317.597656 310.5 297.296875 310.441406 276.875 C 310.261719 238.011719 302.175781 199.085938 284.75 164.355469 C 281.515625 157.886719 278.042969 151.601562 274.089844 145.550781 C 272.113281 142.496094 270.078125 139.503906 267.863281 136.570312 C 266.84375 135.191406 265.707031 133.875 264.570312 132.558594 C 264.03125 131.957031 261.035156 129.324219 261.457031 128.425781 C 262.414062 126.570312 271.214844 128.90625 272.59375 129.203125 C 274.332031 129.5625 276.488281 130.519531 278.222656 130.519531 C 279.898438 130.519531 279.839844 128.726562 279.839844 127.527344 C 279.78125 125.429688 280.257812 123.515625 280.558594 121.417969 C 282.234375 111 280.679688 101.058594 279.71875 90.640625 C 278.761719 80.160156 277.921875 69.621094 275.230469 59.441406 C 273.613281 53.453125 271.214844 47.644531 269.660156 41.59375 C 269.300781 40.21875 268.820312 38.71875 267.5625 38.121094 C 266.546875 37.640625 265.347656 38 264.332031 38.300781 C 249.777344 42.734375 235.707031 48.421875 221.933594 54.710938 C 215.285156 57.761719 207.140625 60.457031 202.292969 66.207031 C 200.015625 68.960938 198.277344 72.136719 196.902344 75.429688 C 195.464844 78.78125 194.027344 81.117188 190.074219 80.996094 C 183.789062 80.816406 177.679688 80.277344 171.390625 81.058594 C 168.335938 81.476562 167.796875 80.398438 165.761719 78.421875 C 164.503906 77.226562 163.1875 76.085938 161.871094 75.007812 C 159.234375 72.792969 156.421875 70.757812 153.546875 68.839844 C 147.976562 65.070312 142.046875 61.835938 135.941406 58.960938 C 123.84375 53.273438 111.148438 49.078125 98.511719 44.886719 C 97.4375 44.527344 96.296875 44.167969 95.28125 44.648438 C 94.261719 45.066406 93.722656 46.144531 93.242188 47.164062 C 80.667969 73.691406 76.597656 104.171875 81.746094 133.035156 C 81.925781 133.996094 82.164062 135.074219 82.882812 135.671875 C 83.902344 136.507812 85.460938 136.210938 86.714844 135.851562 C 92.945312 134.113281 99.113281 132.378906 105.339844 130.699219 C 110.25 129.324219 114.921875 128.125 119.773438 126.570312 C 110.429688 132.257812 102.707031 140.460938 97.496094 150.101562 C 95.039062 154.652344 93.183594 159.445312 90.789062 163.996094 C 88.8125 167.707031 86.535156 171.242188 84.679688 175.015625 C 81.265625 181.839844 79.171875 189.207031 77.136719 196.570312 C 68.75 225.976562 64.5 256.816406 68.273438 287.234375 C 69.828125 299.8125 70.847656 312.566406 72.105469 325.203125 C 83.125 317.296875 94.140625 309.332031 105.21875 301.425781 C 113.183594 295.738281 121.269531 289.871094 128.695312 283.402344 C 136.359375 276.636719 142.886719 268.972656 148.996094 260.765625 C 149.054688 260.707031 149.113281 260.585938 149.175781 260.527344 C 161.390625 244.058594 170.734375 225.316406 178.757812 206.511719 C 187.320312 186.453125 185.523438 163.757812 185.644531 141.957031 C 185.644531 137.167969 185.523438 132.199219 183.1875 128.066406 C 180.132812 122.738281 173.847656 119.5625 171.8125 113.8125 C 171.390625 112.617188 171.332031 111 172.46875 110.402344 C 173.007812 110.101562 173.667969 110.160156 174.324219 110.28125 C 179.535156 110.9375 184.746094 111.65625 190.015625 112.316406 C 190.734375 112.4375 191.511719 112.496094 192.171875 112.914062 C 193.367188 113.695312 193.789062 115.3125 193.488281 116.6875 C 193.1875 118.066406 192.410156 119.261719 191.570312 120.460938 C 174.503906 145.433594 176.660156 179.746094 181.570312 209.566406 C 183.96875 223.460938 191.210938 236.453125 200.195312 247.472656 Z M 200.195312 247.472656 " fill-opacity="1" fill-rule="nonzero"/></g><g mask="url(#f4c96eb1b6)"><g transform="matrix(1, 0, 0, 1, 80, 54)"><g clip-path="url(#5591b958f0)"><path fill="#a49694" d="M 129.535156 21.667969 C 139.835938 10.710938 153.132812 1.425781 168.160156 0.648438 C 171.574219 0.46875 175.046875 0.769531 178.164062 2.085938 C 181.277344 3.402344 184.03125 5.859375 185.226562 9.03125 C 187.203125 14.480469 184.152344 20.46875 184.269531 26.21875 C 184.449219 34.183594 190.4375 40.949219 191.933594 48.796875 C 192.714844 52.988281 191.816406 57.957031 188.164062 60.234375 C 185.289062 61.96875 181.574219 61.492188 178.28125 60.953125 C 172.710938 59.992188 167.144531 59.09375 161.933594 56.9375 C 155.347656 54.246094 149.65625 49.8125 143.308594 46.757812 C 137.441406 43.945312 130.972656 42.269531 124.507812 41.910156 C 120.792969 41.730469 109.476562 39.09375 114.867188 33.164062 C 116.601562 31.25 120.136719 30.53125 122.230469 28.914062 C 124.867188 26.757812 127.203125 24.183594 129.535156 21.667969 Z M 129.535156 21.667969 " fill-opacity="1" fill-rule="nonzero"/><path fill="#a49694" d="M 34.382812 12.507812 C 27.375 10.949219 19.292969 10.050781 13.601562 14.480469 C 10.789062 16.699219 8.871094 20.710938 10.488281 23.945312 C 11.808594 26.636719 15.039062 27.777344 17.976562 28.195312 C 20.910156 28.613281 24.023438 28.496094 26.777344 29.753906 C 29.472656 31.011719 31.6875 34.183594 30.492188 36.9375 C 29.53125 39.214844 26.71875 40.230469 25.519531 42.386719 C 24.023438 45.023438 25.460938 48.496094 27.914062 50.234375 C 30.371094 51.96875 33.542969 52.328125 36.539062 52.449219 C 47.558594 52.925781 58.636719 51.011719 68.816406 46.820312 C 75.222656 44.183594 81.511719 40.652344 88.398438 40.710938 C 88.816406 40.710938 88.695312 35.023438 88.21875 34.242188 C 87.257812 32.746094 84.566406 31.910156 83.066406 31.070312 C 77.976562 28.253906 72.828125 25.621094 67.496094 23.285156 C 56.839844 18.613281 45.699219 14.960938 34.382812 12.507812 Z M 34.382812 12.507812 " fill-opacity="1" fill-rule="nonzero"/><path fill="#a49694" d="M 41.628906 83.886719 C 36.660156 87.660156 31.566406 91.671875 28.875 97.300781 C 22.824219 109.875 31.027344 124.785156 29.054688 138.558594 C 28.035156 145.386719 24.382812 151.855469 18.992188 156.226562 C 14.859375 159.578125 9.710938 161.792969 6.175781 165.746094 C 1.6875 170.835938 0.488281 178.203125 1.984375 184.789062 C 3.484375 191.378906 7.375 197.1875 12.105469 202.035156 C 15.820312 205.867188 20.429688 209.402344 25.820312 209.761719 C 31.988281 210.238281 37.675781 206.527344 42.707031 202.933594 C 48.636719 198.683594 54.683594 194.132812 58.277344 187.722656 C 63.1875 178.863281 62.765625 167.601562 68.695312 159.398438 C 74.863281 150.894531 86.660156 147.542969 91.992188 138.441406 C 94.625 133.949219 95.285156 128.558594 95.644531 123.410156 C 96.542969 111.015625 96.300781 98.5 94.925781 86.164062 C 94.207031 79.933594 93.1875 73.707031 91.929688 67.597656 C 90.734375 61.96875 89.894531 54.363281 87.019531 49.394531 C 83.007812 51.191406 79.175781 55.144531 75.640625 57.835938 C 71.929688 60.710938 68.15625 63.585938 64.445312 66.460938 C 56.777344 72.328125 49.171875 78.078125 41.628906 83.886719 Z M 41.628906 83.886719 " fill-opacity="1" fill-rule="nonzero"/><g clip-path="url(#126357ccd3)"><path fill="#a49694" d="M 105.644531 118.078125 C 105.042969 138.621094 112.769531 158.5 122.351562 176.644531 C 126.722656 184.851562 132.410156 193.652344 141.453125 195.808594 C 148.21875 197.425781 155.226562 194.910156 162.113281 194.550781 C 171.996094 194.011719 182.054688 198.144531 188.703125 205.507812 C 191.214844 208.324219 193.3125 211.558594 196.066406 214.132812 C 198.820312 216.707031 202.535156 218.683594 206.308594 218.085938 C 210.4375 217.425781 213.613281 213.652344 214.75 209.582031 C 215.949219 205.507812 215.527344 201.199219 214.992188 197.066406 C 212.953125 180.539062 209.480469 164.25 206.007812 148.023438 C 203.253906 135.027344 200.4375 122.03125 195.828125 109.636719 C 191.214844 97.242188 184.570312 85.324219 174.988281 76.101562 C 159.359375 61.011719 135.945312 52.6875 115.046875 48.316406 C 119.957031 56.339844 116.242188 61.132812 114.6875 69.273438 C 112.710938 79.636719 110.074219 89.753906 107.980469 100.113281 C 106.78125 106.042969 105.824219 112.03125 105.644531 118.078125 Z M 105.644531 118.078125 " fill-opacity="1" fill-rule="nonzero"/></g></g></g></g><path fill="#ffffff" d="M 213.96875 105.609375 C 208.398438 103.875 202.890625 101.957031 197.5 99.742188 C 196.183594 99.203125 194.625 98.304688 194.625 96.867188 C 194.625 95.910156 195.464844 95.070312 196.363281 94.710938 C 197.261719 94.351562 198.277344 94.472656 199.238281 94.53125 C 204.085938 95.070312 208.757812 96.628906 213.429688 98.003906 C 216.960938 99.023438 224.027344 101.957031 227.5 100.398438 C 227.023438 99.261719 225.824219 98.421875 224.566406 98.183594 C 225.464844 97.464844 226.664062 97.226562 227.800781 96.988281 C 228.9375 96.746094 230.136719 96.566406 231.09375 95.847656 C 232.054688 95.128906 232.59375 93.8125 232.054688 92.792969 C 231.394531 91.539062 229.65625 91.476562 228.21875 91.539062 C 221.511719 91.957031 214.808594 92.433594 208.101562 92.855469 C 205.105469 92.734375 201.933594 92.734375 198.9375 92.613281 C 198.160156 92.554688 197.261719 92.554688 196.601562 92.078125 C 195.523438 91.359375 195.285156 89.800781 195.824219 88.664062 C 196.363281 87.523438 197.5 86.746094 198.757812 86.386719 C 199.957031 86.027344 201.273438 86.027344 202.53125 85.96875 C 208.101562 85.910156 213.667969 85.609375 219.058594 84.230469 C 224.449219 82.792969 229.597656 80.160156 233.191406 75.90625 C 229.417969 75.609375 226.003906 77.945312 222.652344 79.679688 C 218.699219 81.714844 214.386719 83.09375 209.957031 83.691406 C 211.453125 82.496094 213.011719 81.296875 214.269531 79.859375 C 215.523438 78.421875 216.542969 76.6875 216.84375 74.769531 C 210.554688 78.601562 204.148438 82.195312 197.558594 85.550781 C 196.902344 85.847656 196.125 86.148438 195.585938 85.789062 C 194.925781 85.371094 194.984375 84.410156 195.046875 83.632812 C 195.105469 82.855469 194.867188 81.535156 194.085938 81.417969 C 193.96875 90.820312 193.789062 100.21875 193.667969 109.621094 C 194.6875 108.066406 194.328125 106.027344 194.207031 104.113281 C 194.148438 103.035156 194.265625 101.835938 195.105469 101.238281 C 195.703125 100.820312 196.484375 100.878906 197.199219 101 C 200.253906 101.539062 202.652344 103.214844 205.40625 104.351562 C 208.101562 105.488281 211.214844 105.847656 214.027344 106.746094 C 219.957031 108.605469 225.707031 111.117188 231.09375 114.171875 C 236.066406 116.988281 240.796875 120.222656 245.765625 123.035156 C 250.738281 125.789062 256.125 128.125 261.816406 128.726562 C 257.265625 127.046875 252.832031 125.011719 248.582031 122.617188 C 244.628906 120.339844 240.855469 117.765625 236.84375 115.550781 C 229.835938 111.597656 221.8125 108.003906 213.96875 105.609375 Z M 213.96875 105.609375 " fill-opacity="1" fill-rule="nonzero"/><path fill="#ffffff" d="M 168.757812 104.113281 C 168.578125 103.214844 168.335938 102.257812 168.15625 101.359375 C 161.929688 102.855469 156.539062 106.207031 151.152344 109.503906 C 145.101562 113.214844 138.996094 116.988281 132.945312 120.699219 C 128.574219 123.394531 124.082031 126.089844 119.054688 126.929688 C 127.019531 123.695312 134.5625 119.382812 141.507812 114.292969 C 144.503906 112.136719 147.675781 110.28125 150.671875 108.066406 C 153.785156 105.789062 157.078125 103.695312 160.851562 102.617188 C 162.828125 102.078125 164.984375 101.777344 166.601562 100.519531 C 168.21875 99.261719 168.996094 96.566406 167.5 95.191406 C 166.121094 93.871094 163.847656 94.53125 162.050781 95.191406 C 158.21875 96.6875 154.324219 98.242188 150.492188 99.742188 C 147.558594 100.878906 144.625 102.015625 141.570312 102.675781 C 140.910156 102.796875 140.074219 102.796875 139.832031 102.195312 C 139.652344 101.65625 140.074219 101.117188 140.492188 100.820312 C 141.75 99.742188 143.1875 98.960938 144.742188 98.421875 C 143.1875 98.066406 141.988281 96.6875 141.6875 95.128906 C 141.390625 93.574219 142.109375 91.898438 143.367188 91 C 144.5625 90.160156 146.179688 89.980469 147.675781 90.21875 C 149.175781 90.460938 150.550781 91.058594 151.988281 91.476562 C 155.28125 92.554688 158.816406 92.972656 162.289062 93.09375 C 163.308594 93.152344 164.386719 93.152344 165.34375 92.792969 C 166.300781 92.433594 167.199219 91.65625 167.378906 90.699219 C 167.617188 89.5 166.898438 88.304688 165.882812 87.644531 C 164.863281 86.984375 163.667969 86.746094 162.46875 86.507812 C 149.355469 83.992188 136.058594 81.777344 122.707031 82.433594 C 122.046875 82.496094 121.089844 82.195312 121.269531 81.535156 C 121.328125 81.238281 121.628906 81.058594 121.929688 80.9375 C 123.664062 80.039062 125.339844 79.140625 127.078125 78.242188 C 129.113281 77.164062 131.148438 76.148438 133.367188 75.609375 C 138.816406 74.351562 144.445312 76.507812 149.414062 79.140625 C 154.382812 81.777344 159.234375 84.890625 164.804688 85.667969 C 165.703125 85.789062 166.660156 85.847656 167.4375 85.429688 C 168.039062 85.070312 168.398438 83.871094 168.9375 83.871094 C 169.414062 87.105469 169.117188 90.640625 169.054688 93.933594 C 169.054688 97.285156 168.9375 100.699219 168.757812 104.113281 Z M 168.757812 104.113281 " fill-opacity="1" fill-rule="nonzero"/><path fill="#ffffff" d="M 210.496094 110.402344 C 216.902344 113.933594 224.269531 115.429688 230.734375 118.785156 C 233.667969 120.28125 236.542969 122.378906 237.800781 125.492188 C 238.402344 126.988281 238.519531 128.605469 238.941406 130.222656 C 239.359375 131.777344 240.078125 133.394531 241.453125 134.234375 C 231.695312 130.222656 224.566406 121.71875 216.183594 115.371094 C 211.8125 112.078125 207.082031 109.261719 202.230469 106.6875 C 201.574219 106.328125 196.0625 103.992188 196.960938 103.035156 C 197.621094 102.257812 202.53125 105.429688 203.308594 105.910156 C 205.644531 107.40625 207.980469 109.023438 210.496094 110.402344 Z M 210.496094 110.402344 " fill-opacity="1" fill-rule="nonzero"/><path fill="#ffffff" d="M 241.632812 146.691406 C 246.425781 151.359375 251.214844 156.03125 255.765625 160.882812 C 257.203125 162.4375 258.640625 164.054688 259.359375 166.03125 C 260.078125 168.007812 259.898438 170.464844 258.402344 171.960938 C 256.84375 173.515625 254.328125 173.578125 252.234375 172.917969 C 248.519531 171.722656 245.828125 168.726562 243.371094 165.671875 C 235.886719 156.210938 229.835938 145.671875 223.308594 135.550781 C 217.441406 126.449219 211.035156 118.066406 203.25 110.519531 C 202.113281 109.382812 202.949219 109.144531 203.90625 110.101562 C 205.046875 111.117188 206.125 112.257812 207.203125 113.335938 C 209.417969 115.492188 211.574219 117.585938 213.789062 119.742188 C 218.101562 123.933594 222.472656 128.1875 226.785156 132.378906 C 231.753906 137.109375 236.722656 141.898438 241.632812 146.691406 Z M 241.632812 146.691406 " fill-opacity="1" fill-rule="nonzero"/><path fill="#ffffff" d="M 207.621094 124.292969 C 210.316406 128.007812 213.308594 131.480469 215.703125 135.371094 C 218.339844 139.5625 220.195312 144.234375 222.113281 148.785156 C 223.910156 153.277344 225.765625 157.828125 226.066406 162.679688 C 226.183594 164.476562 225.765625 166.691406 224.089844 167.289062 C 223.128906 167.648438 222.050781 167.289062 221.273438 166.691406 C 220.496094 166.089844 219.898438 165.253906 219.417969 164.355469 C 217.441406 160.941406 216.0625 157.167969 214.746094 153.457031 C 213.191406 149.144531 211.632812 144.773438 210.375 140.34375 C 209.355469 136.808594 208.519531 133.214844 207.320312 129.742188 C 205.285156 123.875 202.292969 118.425781 199.777344 112.734375 C 199.175781 111.296875 198.578125 109.921875 198.039062 108.425781 C 197.738281 107.644531 197.082031 105.191406 198.277344 106.867188 C 199.117188 108.003906 199.476562 109.863281 200.074219 111.179688 C 200.675781 112.554688 201.332031 113.875 202.050781 115.191406 C 203.667969 118.484375 205.523438 121.480469 207.621094 124.292969 Z M 207.621094 124.292969 " fill-opacity="1" fill-rule="nonzero"/><path fill="#ffffff" d="M 203.789062 184.238281 C 203.667969 186.390625 203.1875 189.085938 201.152344 189.804688 C 199.535156 190.40625 197.679688 189.265625 196.839844 187.769531 C 196.003906 186.273438 195.882812 184.476562 195.765625 182.738281 C 194.984375 167.707031 194.148438 152.617188 195.644531 137.648438 C 196.484375 129.203125 198.097656 120.582031 197.019531 112.078125 C 196.78125 110.101562 195.703125 107.765625 195.765625 105.847656 C 197.261719 106.628906 197.378906 109.261719 197.738281 110.699219 C 198.339844 113.273438 198.816406 115.910156 199.355469 118.484375 C 200.375 123.753906 201.214844 129.023438 201.871094 134.292969 C 203.25 144.894531 204.027344 155.550781 204.148438 166.210938 C 204.207031 172.199219 204.085938 178.246094 203.789062 184.238281 Z M 203.789062 184.238281 " fill-opacity="1" fill-rule="nonzero"/><path fill="#ffffff" d="M 169.296875 121.058594 C 171.332031 131.539062 171.871094 142.199219 172.289062 152.859375 C 172.410156 156.628906 172.410156 160.820312 169.894531 163.636719 C 168.816406 164.773438 167.257812 165.613281 165.703125 165.375 C 164.085938 165.074219 162.886719 163.636719 162.109375 162.140625 C 159.414062 157.050781 159.894531 150.820312 161.390625 145.253906 C 162.828125 139.683594 165.164062 134.292969 166 128.605469 C 166.601562 124.652344 166.480469 120.699219 166.421875 116.6875 C 166.421875 113.15625 166 108.425781 167.5 105.191406 C 167.976562 105.96875 167.679688 107.046875 167.617188 107.945312 C 167.5 109.382812 167.617188 110.878906 167.738281 112.316406 C 168.039062 115.25 168.695312 118.125 169.296875 121.058594 Z M 169.296875 121.058594 " fill-opacity="1" fill-rule="nonzero"/><path fill="#ffffff" d="M 157.378906 133.816406 C 155.164062 141.597656 152.589844 149.265625 149.953125 156.929688 C 147.078125 165.375 144.265625 173.875 141.390625 182.320312 C 140.730469 184.296875 139.59375 186.691406 137.496094 186.691406 C 136.121094 186.691406 134.921875 185.554688 134.445312 184.238281 C 133.964844 182.917969 134.085938 181.480469 134.203125 180.105469 C 134.804688 174.773438 135.941406 169.503906 137.738281 164.414062 C 139.773438 158.605469 142.46875 153.097656 145.222656 147.648438 C 150.851562 136.328125 156.480469 125.011719 162.167969 113.753906 C 163.726562 110.699219 165.105469 107.40625 166.839844 104.472656 C 163.726562 111.898438 161.332031 119.441406 159.175781 127.167969 C 158.636719 129.382812 158.039062 131.597656 157.378906 133.816406 Z M 157.378906 133.816406 " fill-opacity="1" fill-rule="nonzero"/><path fill="#ffffff" d="M 152.769531 128.84375 C 152.46875 129.742188 152.167969 130.640625 151.511719 131.300781 C 150.851562 131.957031 149.714844 132.199219 148.996094 131.660156 C 148.515625 131.300781 148.335938 130.699219 148.277344 130.101562 C 147.738281 127.40625 148.335938 124.53125 149.535156 122.078125 C 150.671875 119.5625 152.410156 117.347656 154.265625 115.3125 C 155.820312 113.574219 157.4375 111.898438 159.175781 110.339844 C 159.714844 109.863281 163.605469 106.507812 162.410156 108.902344 C 160.253906 113.15625 157.679688 117.046875 155.761719 121.417969 C 154.5625 123.8125 153.605469 126.269531 152.769531 128.84375 Z M 152.769531 128.84375 " fill-opacity="1" fill-rule="nonzero"/><path fill="#ffffff" d="M 138.996094 132.558594 C 132.527344 143.875 128.097656 156.269531 123.484375 168.488281 C 123.125 169.386719 122.765625 170.34375 122.109375 171.0625 C 121.449219 171.78125 120.371094 172.199219 119.472656 171.839844 C 118.515625 171.480469 118.09375 170.402344 117.796875 169.445312 C 116.121094 164.054688 116.597656 158.066406 119.171875 153.039062 C 116.898438 152.796875 115.640625 149.921875 116.238281 147.707031 C 116.835938 145.492188 118.632812 143.816406 120.371094 142.257812 C 132.109375 131.71875 143.785156 121.179688 155.523438 110.640625 C 157.796875 108.605469 160.972656 105.488281 164.207031 105.308594 C 162.46875 106.867188 160.191406 107.945312 158.398438 109.382812 C 156.480469 110.878906 154.683594 112.496094 152.949219 114.234375 C 149.472656 117.644531 146.359375 121.480469 143.605469 125.492188 C 141.867188 127.765625 140.371094 130.160156 138.996094 132.558594 Z M 138.996094 132.558594 " fill-opacity="1" fill-rule="nonzero"/></svg>