<svg xmlns="http://www.w3.org/2000/svg" xmlns:xlink="http://www.w3.org/1999/xlink" width="500" zoomAndPan="magnify" viewBox="0 0 375 374.999991" height="500" preserveAspectRatio="xMidYMid meet" version="1.0"><defs><clipPath id="64a1412e22"><path d="M 65 58 L 182 58 L 182 337.171875 L 65 337.171875 Z M 65 58 " clip-rule="nonzero"/></clipPath><clipPath id="157353e29c"><path d="M 193 58 L 309 58 L 309 337.171875 L 193 337.171875 Z M 193 58 " clip-rule="nonzero"/></clipPath><clipPath id="1336e1b69c"><path d="M 65 58 L 182 58 L 182 337.171875 L 65 337.171875 Z M 65 58 " clip-rule="nonzero"/></clipPath><clipPath id="2f1bf64c39"><path d="M 193 58 L 309 58 L 309 337.171875 L 193 337.171875 Z M 193 58 " clip-rule="nonzero"/></clipPath></defs><g clip-path="url(#64a1412e22)"><path fill="#4b4237" d="M 181.339844 174.765625 C 180.953125 180.996094 180.570312 187.226562 180.183594 193.390625 C 179.605469 203.121094 179.007812 212.742188 178.386719 222.257812 C 178.386719 222.578125 178.351562 222.898438 178.320312 223.21875 C 177.710938 233.011719 177.015625 242.699219 176.234375 252.277344 C 176.230469 252.558594 176.207031 252.835938 176.167969 253.113281 C 175.945312 256.132812 175.6875 259.148438 175.398438 262.136719 C 174.917969 267.660156 174.402344 273.179688 173.824219 278.640625 C 173.410156 282.910156 172.925781 287.179688 172.414062 291.417969 C 171.898438 295.816406 171.351562 300.214844 170.742188 304.582031 C 170.742188 304.648438 170.710938 304.742188 170.710938 304.808594 C 170.550781 306.027344 170.359375 307.25 170.199219 308.46875 C 170.070312 309.398438 169.941406 310.300781 169.78125 311.230469 C 168.625 319.386719 167.308594 327.316406 165.863281 334.863281 C 165.777344 335.332031 165.597656 335.757812 165.324219 336.144531 C 165.046875 336.535156 164.703125 336.84375 164.289062 337.078125 C 163.800781 337.347656 163.273438 337.484375 162.714844 337.496094 C 162.328125 337.484375 161.953125 337.410156 161.59375 337.269531 L 113.429688 319.066406 C 113.078125 318.929688 112.761719 318.738281 112.476562 318.488281 C 112.191406 318.242188 111.957031 317.957031 111.773438 317.628906 C 111.589844 317.300781 111.464844 316.949219 111.402344 316.582031 C 111.339844 316.210938 111.339844 315.839844 111.40625 315.46875 C 121.679688 259.855469 124.507812 214.195312 120.011719 176.695312 L 112.914062 215.417969 C 112.378906 218.253906 112.027344 221.109375 111.855469 223.988281 L 105.402344 320.382812 C 105.378906 320.789062 105.277344 321.175781 105.109375 321.542969 C 104.9375 321.914062 104.703125 322.238281 104.40625 322.515625 C 104.113281 322.796875 103.777344 323.011719 103.398438 323.164062 C 103.023438 323.316406 102.628906 323.394531 102.222656 323.398438 L 69.664062 323.59375 L 69.632812 323.59375 C 69.21875 323.589844 68.820312 323.511719 68.4375 323.355469 C 68.054688 323.203125 67.71875 322.980469 67.421875 322.691406 C 67.125 322.40625 66.890625 322.074219 66.726562 321.695312 C 66.558594 321.316406 66.46875 320.921875 66.453125 320.507812 C 63.917969 259.726562 71.269531 197.726562 78.398438 137.746094 C 81.671875 110.292969 87.421875 89.195312 96.539062 71.375 C 96.914062 70.625 97.488281 70.101562 98.273438 69.804688 L 129.035156 58.277344 C 129.183594 70.285156 131 82.039062 134.492188 93.53125 C 136.96875 101.691406 140.832031 109.128906 146.082031 115.847656 C 151.125 121.941406 154.761719 128.78125 157 136.363281 C 158.328125 140.78125 160.109375 145.003906 162.347656 149.039062 C 164.582031 153.070312 167.21875 156.820312 170.261719 160.285156 C 171.550781 161.773438 173.144531 162.769531 175.046875 163.273438 C 175.855469 163.492188 176.679688 163.597656 177.519531 163.59375 C 178.886719 163.59375 180.195312 163.304688 181.433594 162.726562 C 181.628906 166.742188 181.597656 170.753906 181.339844 174.765625 Z M 181.339844 174.765625 " fill-opacity="1" fill-rule="nonzero"/></g><g clip-path="url(#157353e29c)"><path fill="#4b4237" d="M 308.234375 320.507812 C 308.21875 320.925781 308.125 321.320312 307.953125 321.699219 C 307.78125 322.078125 307.546875 322.410156 307.25 322.699219 C 306.949219 322.984375 306.605469 323.207031 306.222656 323.359375 C 305.835938 323.515625 305.4375 323.59375 305.023438 323.59375 L 304.992188 323.59375 L 272.433594 323.398438 C 272.027344 323.390625 271.636719 323.3125 271.261719 323.15625 C 270.886719 323.003906 270.550781 322.785156 270.257812 322.507812 C 269.960938 322.226562 269.730469 321.90625 269.554688 321.539062 C 269.382812 321.171875 269.28125 320.785156 269.253906 320.382812 L 262.832031 223.988281 C 262.652344 221.121094 262.296875 218.273438 261.773438 215.449219 L 254.675781 176.695312 C 250.179688 214.195312 253.007812 259.855469 263.25 315.46875 C 263.320312 315.839844 263.324219 316.210938 263.261719 316.582031 C 263.199219 316.957031 263.078125 317.304688 262.890625 317.632812 C 262.707031 317.964844 262.472656 318.25 262.183594 318.496094 C 261.898438 318.742188 261.578125 318.929688 261.226562 319.066406 L 213.09375 337.269531 C 212.722656 337.40625 212.335938 337.484375 211.9375 337.496094 C 211.382812 337.480469 210.855469 337.34375 210.367188 337.078125 C 209.519531 336.570312 208.992188 335.828125 208.792969 334.863281 C 207.378906 327.316406 206.03125 319.386719 204.875 311.230469 C 204.714844 310.300781 204.585938 309.398438 204.457031 308.46875 C 204.296875 307.25 204.136719 306.027344 203.945312 304.808594 C 203.847656 304.132812 203.75 303.460938 203.6875 302.785156 C 203.65625 302.59375 203.65625 302.433594 203.621094 302.238281 C 203.558594 302.019531 203.527344 301.792969 203.527344 301.566406 C 203.109375 298.546875 202.722656 295.464844 202.371094 292.414062 C 201.890625 288.527344 201.472656 284.613281 201.054688 280.695312 C 201.023438 280.535156 201.023438 280.375 200.988281 280.179688 C 200.765625 277.996094 200.574219 275.847656 200.347656 273.664062 C 199.960938 269.90625 199.609375 266.148438 199.289062 262.359375 C 199.261719 262.179688 199.25 261.996094 199.257812 261.816406 C 198.96875 258.890625 198.742188 255.90625 198.515625 252.953125 C 198.464844 252.742188 198.441406 252.527344 198.453125 252.308594 C 197.683594 242.964844 197.007812 233.496094 196.367188 223.925781 C 195.722656 213.90625 195.113281 203.761719 194.472656 193.453125 C 194.117188 187.246094 193.742188 181.019531 193.347656 174.765625 C 193.125 171.460938 193.089844 168.183594 193.1875 164.910156 C 193.1875 164.171875 193.21875 163.464844 193.25 162.757812 C 194.496094 163.316406 195.804688 163.597656 197.167969 163.59375 C 198.007812 163.589844 198.832031 163.472656 199.640625 163.238281 C 201.519531 162.746094 203.105469 161.769531 204.394531 160.316406 C 207.457031 156.796875 210.121094 152.996094 212.375 148.910156 C 214.632812 144.824219 216.4375 140.546875 217.78125 136.074219 C 218.992188 132.355469 220.476562 128.746094 222.246094 125.253906 C 224.042969 121.890625 226.152344 118.730469 228.570312 115.785156 C 242.699219 98.445312 245.363281 72.660156 245.652344 58.308594 L 276.414062 69.804688 C 277.191406 70.109375 277.769531 70.632812 278.148438 71.375 C 287.234375 89.195312 293.015625 110.292969 296.289062 137.746094 C 303.386719 197.691406 310.738281 259.695312 308.234375 320.507812 Z M 308.234375 320.507812 " fill-opacity="1" fill-rule="nonzero"/></g><path fill="#4b4237" d="M 239.230469 57.667969 C 239.007812 70.925781 236.695312 95.617188 223.59375 111.738281 C 220.894531 115.011719 218.550781 118.519531 216.5625 122.269531 C 214.636719 126.074219 213.007812 130 211.683594 134.054688 C 210.476562 138.113281 208.851562 142.003906 206.808594 145.714844 C 204.769531 149.429688 202.359375 152.882812 199.578125 156.078125 C 198.9375 156.800781 198.132812 157.164062 197.167969 157.171875 C 196.707031 157.171875 196.269531 157.074219 195.851562 156.882812 C 195.539062 156.742188 195.257812 156.558594 195.003906 156.328125 C 194.75 156.097656 194.539062 155.835938 194.367188 155.535156 C 194.195312 155.238281 194.078125 154.925781 194.007812 154.589844 C 193.9375 154.253906 193.921875 153.914062 193.957031 153.574219 C 195.699219 140.109375 199.351562 127.179688 204.90625 114.789062 C 206.460938 111.402344 207.453125 107.859375 207.894531 104.160156 L 213.511719 51.824219 C 213.609375 51.050781 213.527344 50.304688 213.253906 49.574219 L 207.410156 33.550781 C 207.285156 33.199219 207.21875 32.835938 207.222656 32.460938 C 207.222656 32.082031 207.285156 31.71875 207.414062 31.367188 C 207.542969 31.011719 207.726562 30.691406 207.96875 30.402344 C 208.207031 30.117188 208.492188 29.878906 208.816406 29.6875 C 209.140625 29.5 209.488281 29.371094 209.855469 29.304688 C 210.226562 29.238281 210.597656 29.234375 210.96875 29.296875 C 211.335938 29.359375 211.6875 29.484375 212.011719 29.667969 C 212.339844 29.851562 212.625 30.089844 212.871094 30.375 L 225.554688 45.464844 L 228.25 48.035156 C 231.03125 50.710938 234.125 52.957031 237.53125 54.777344 C 238.054688 55.066406 238.472656 55.472656 238.777344 55.988281 C 239.082031 56.507812 239.234375 57.066406 239.230469 57.667969 Z M 239.230469 57.667969 " fill-opacity="1" fill-rule="nonzero"/><path fill="#4b4237" d="M 169.746094 114.789062 C 175.320312 127.175781 178.96875 140.105469 180.695312 153.574219 C 180.738281 153.914062 180.726562 154.25 180.65625 154.585938 C 180.589844 154.921875 180.472656 155.234375 180.308594 155.535156 C 180.140625 155.832031 179.929688 156.09375 179.679688 156.324219 C 179.425781 156.554688 179.144531 156.742188 178.835938 156.882812 C 178.417969 157.070312 177.976562 157.167969 177.519531 157.171875 C 176.550781 157.171875 175.75 156.804688 175.109375 156.078125 C 172.316406 152.882812 169.894531 149.425781 167.847656 145.707031 C 165.800781 141.988281 164.175781 138.09375 162.972656 134.019531 C 160.492188 125.800781 156.519531 118.382812 151.054688 111.761719 C 146.3125 105.679688 142.824219 98.949219 140.585938 91.566406 C 137.257812 80.507812 135.542969 69.207031 135.449219 57.660156 C 135.441406 57.058594 135.589844 56.496094 135.894531 55.976562 C 136.203125 55.457031 136.621094 55.054688 137.152344 54.769531 C 140.539062 52.941406 143.621094 50.691406 146.398438 48.027344 L 149.128906 45.457031 L 161.777344 30.367188 C 162.019531 30.070312 162.304688 29.824219 162.632812 29.628906 C 162.960938 29.429688 163.3125 29.300781 163.691406 29.230469 C 164.066406 29.160156 164.445312 29.15625 164.820312 29.222656 C 165.199219 29.289062 165.550781 29.417969 165.882812 29.609375 C 166.214844 29.800781 166.503906 30.042969 166.746094 30.335938 C 166.992188 30.632812 167.175781 30.960938 167.304688 31.320312 C 167.429688 31.683594 167.492188 32.054688 167.484375 32.4375 C 167.480469 32.820312 167.40625 33.1875 167.269531 33.546875 L 161.425781 49.503906 C 161.164062 50.253906 161.070312 51.023438 161.136719 51.816406 L 166.789062 104.183594 C 167.230469 107.871094 168.21875 111.40625 169.746094 114.789062 Z M 169.746094 114.789062 " fill-opacity="1" fill-rule="nonzero"/><path fill="#4b4237" d="M 200.894531 193.070312 C 200.507812 186.863281 200.121094 180.632812 199.738281 174.382812 C 199.511719 170.667969 199.480469 166.957031 199.640625 163.238281 C 198.832031 163.472656 198.007812 163.589844 197.167969 163.59375 C 195.804688 163.597656 194.496094 163.316406 193.25 162.757812 C 193.21875 163.464844 193.1875 164.171875 193.1875 164.910156 C 193.089844 168.183594 193.125 171.460938 193.347656 174.765625 C 193.734375 181.027344 194.109375 187.257812 194.472656 193.453125 C 195.113281 203.761719 195.722656 213.90625 196.367188 223.925781 C 197.007812 233.496094 197.683594 242.964844 198.453125 252.308594 C 198.441406 252.527344 198.464844 252.742188 198.515625 252.953125 C 198.742188 255.90625 198.96875 258.890625 199.257812 261.816406 C 199.25 261.996094 199.261719 262.179688 199.289062 262.359375 C 199.609375 266.148438 199.960938 269.90625 200.347656 273.664062 C 200.574219 275.847656 200.765625 277.996094 200.988281 280.179688 C 201.023438 280.375 201.023438 280.535156 201.054688 280.695312 C 201.472656 284.613281 201.890625 288.527344 202.371094 292.414062 C 202.722656 295.464844 203.109375 298.546875 203.527344 301.566406 C 203.527344 301.792969 203.558594 302.019531 203.621094 302.238281 C 203.65625 302.433594 203.65625 302.59375 203.6875 302.785156 C 203.75 303.460938 203.847656 304.132812 203.945312 304.808594 L 170.710938 304.808594 C 170.710938 304.742188 170.742188 304.648438 170.742188 304.582031 C 171.351562 300.214844 171.898438 295.816406 172.414062 291.417969 C 172.925781 287.179688 173.410156 282.910156 173.824219 278.640625 C 174.402344 273.179688 174.917969 267.660156 175.398438 262.136719 C 175.6875 259.148438 175.945312 256.132812 176.167969 253.113281 C 176.207031 252.835938 176.230469 252.558594 176.234375 252.277344 C 177.003906 242.710938 177.699219 233.023438 178.320312 223.21875 C 178.351562 222.898438 178.386719 222.578125 178.386719 222.257812 C 179.027344 212.753906 179.605469 203.121094 180.183594 193.390625 C 180.570312 187.226562 180.953125 180.996094 181.339844 174.765625 C 181.597656 170.753906 181.628906 166.742188 181.433594 162.726562 C 180.195312 163.304688 178.886719 163.59375 177.519531 163.59375 C 176.679688 163.597656 175.855469 163.492188 175.046875 163.273438 C 175.207031 166.976562 175.175781 170.679688 174.949219 174.382812 C 174.53125 180.609375 174.179688 186.808594 173.792969 192.972656 C 171.351562 233.171875 169.042969 271.15625 163.839844 307.570312 C 163.707031 308.542969 163.964844 309.398438 164.609375 310.136719 C 165.246094 310.875 166.046875 311.238281 167.019531 311.230469 L 207.636719 311.230469 C 207.867188 311.234375 208.09375 311.210938 208.320312 311.164062 C 208.546875 311.117188 208.765625 311.046875 208.976562 310.953125 C 209.1875 310.859375 209.386719 310.742188 209.570312 310.605469 C 209.757812 310.46875 209.925781 310.3125 210.074219 310.136719 C 210.226562 309.964844 210.359375 309.773438 210.46875 309.574219 C 210.578125 309.371094 210.664062 309.15625 210.730469 308.933594 C 210.792969 308.714844 210.832031 308.488281 210.847656 308.257812 C 210.859375 308.027344 210.851562 307.796875 210.816406 307.570312 C 205.640625 271.15625 203.332031 233.238281 200.894531 193.070312 Z M 201.34375 29.242188 L 173.3125 29.242188 C 173.6875 30.28125 173.875 31.347656 173.882812 32.453125 C 173.886719 33.554688 173.707031 34.625 173.34375 35.664062 L 201.34375 35.664062 C 200.964844 34.628906 200.777344 33.558594 200.777344 32.453125 C 200.777344 31.351562 200.964844 30.28125 201.34375 29.242188 Z M 178.386719 222.25 C 179.027344 212.746094 179.605469 203.113281 180.183594 193.382812 C 179.601562 203.117188 179 212.742188 178.386719 222.257812 Z M 178.386719 222.25 " fill-opacity="1" fill-rule="nonzero"/><g clip-path="url(#1336e1b69c)"><path fill="#4b4237" d="M 181.339844 174.765625 C 180.953125 180.996094 180.570312 187.226562 180.183594 193.390625 C 179.605469 203.121094 179.007812 212.742188 178.386719 222.257812 C 178.386719 222.578125 178.351562 222.898438 178.320312 223.21875 C 177.710938 233.011719 177.015625 242.699219 176.234375 252.277344 C 176.230469 252.558594 176.207031 252.835938 176.167969 253.113281 C 175.945312 256.132812 175.6875 259.148438 175.398438 262.136719 C 174.917969 267.660156 174.402344 273.179688 173.824219 278.640625 C 173.410156 282.910156 172.925781 287.179688 172.414062 291.417969 C 171.898438 295.816406 171.351562 300.214844 170.742188 304.582031 C 170.742188 304.648438 170.710938 304.742188 170.710938 304.808594 C 170.550781 306.027344 170.359375 307.25 170.199219 308.46875 C 170.070312 309.398438 169.941406 310.300781 169.78125 311.230469 C 168.625 319.386719 167.308594 327.316406 165.863281 334.863281 C 165.777344 335.332031 165.597656 335.757812 165.324219 336.144531 C 165.046875 336.535156 164.703125 336.84375 164.289062 337.078125 C 163.800781 337.347656 163.273438 337.484375 162.714844 337.496094 C 162.328125 337.484375 161.953125 337.410156 161.59375 337.269531 L 113.429688 319.066406 C 113.078125 318.929688 112.761719 318.738281 112.476562 318.488281 C 112.191406 318.242188 111.957031 317.957031 111.773438 317.628906 C 111.589844 317.300781 111.464844 316.949219 111.402344 316.582031 C 111.339844 316.210938 111.339844 315.839844 111.40625 315.46875 C 121.679688 259.855469 124.507812 214.195312 120.011719 176.695312 L 112.914062 215.417969 C 112.378906 218.253906 112.027344 221.109375 111.855469 223.988281 L 105.402344 320.382812 C 105.378906 320.789062 105.277344 321.175781 105.109375 321.542969 C 104.9375 321.914062 104.703125 322.238281 104.40625 322.515625 C 104.113281 322.796875 103.777344 323.011719 103.398438 323.164062 C 103.023438 323.316406 102.628906 323.394531 102.222656 323.398438 L 69.664062 323.59375 L 69.632812 323.59375 C 69.21875 323.589844 68.820312 323.511719 68.4375 323.355469 C 68.054688 323.203125 67.71875 322.980469 67.421875 322.691406 C 67.125 322.40625 66.890625 322.074219 66.726562 321.695312 C 66.558594 321.316406 66.46875 320.921875 66.453125 320.507812 C 63.917969 259.726562 71.269531 197.726562 78.398438 137.746094 C 81.671875 110.292969 87.421875 89.195312 96.539062 71.375 C 96.914062 70.625 97.488281 70.101562 98.273438 69.804688 L 129.035156 58.277344 C 129.183594 70.285156 131 82.039062 134.492188 93.53125 C 136.96875 101.691406 140.832031 109.128906 146.082031 115.847656 C 151.125 121.941406 154.761719 128.78125 157 136.363281 C 158.328125 140.78125 160.109375 145.003906 162.347656 149.039062 C 164.582031 153.070312 167.21875 156.820312 170.261719 160.285156 C 171.550781 161.773438 173.144531 162.769531 175.046875 163.273438 C 175.855469 163.492188 176.679688 163.597656 177.519531 163.59375 C 178.886719 163.59375 180.195312 163.304688 181.433594 162.726562 C 181.628906 166.742188 181.597656 170.753906 181.339844 174.765625 Z M 181.339844 174.765625 " fill-opacity="1" fill-rule="nonzero"/></g><g clip-path="url(#2f1bf64c39)"><path fill="#4b4237" d="M 308.234375 320.507812 C 308.21875 320.925781 308.125 321.320312 307.953125 321.699219 C 307.78125 322.078125 307.546875 322.410156 307.25 322.699219 C 306.949219 322.984375 306.605469 323.207031 306.222656 323.359375 C 305.835938 323.515625 305.4375 323.59375 305.023438 323.59375 L 304.992188 323.59375 L 272.433594 323.398438 C 272.027344 323.390625 271.636719 323.3125 271.261719 323.15625 C 270.886719 323.003906 270.550781 322.785156 270.257812 322.507812 C 269.960938 322.226562 269.730469 321.90625 269.554688 321.539062 C 269.382812 321.171875 269.28125 320.785156 269.253906 320.382812 L 262.832031 223.988281 C 262.652344 221.121094 262.296875 218.273438 261.773438 215.449219 L 254.675781 176.695312 C 250.179688 214.195312 253.007812 259.855469 263.25 315.46875 C 263.320312 315.839844 263.324219 316.210938 263.261719 316.582031 C 263.199219 316.957031 263.078125 317.304688 262.890625 317.632812 C 262.707031 317.964844 262.472656 318.25 262.183594 318.496094 C 261.898438 318.742188 261.578125 318.929688 261.226562 319.066406 L 213.09375 337.269531 C 212.722656 337.40625 212.335938 337.484375 211.9375 337.496094 C 211.382812 337.480469 210.855469 337.34375 210.367188 337.078125 C 209.519531 336.570312 208.992188 335.828125 208.792969 334.863281 C 207.378906 327.316406 206.03125 319.386719 204.875 311.230469 C 204.714844 310.300781 204.585938 309.398438 204.457031 308.46875 C 204.296875 307.25 204.136719 306.027344 203.945312 304.808594 C 203.847656 304.132812 203.75 303.460938 203.6875 302.785156 C 203.65625 302.59375 203.65625 302.433594 203.621094 302.238281 C 203.558594 302.019531 203.527344 301.792969 203.527344 301.566406 C 203.109375 298.546875 202.722656 295.464844 202.371094 292.414062 C 201.890625 288.527344 201.472656 284.613281 201.054688 280.695312 C 201.023438 280.535156 201.023438 280.375 200.988281 280.179688 C 200.765625 277.996094 200.574219 275.847656 200.347656 273.664062 C 199.960938 269.90625 199.609375 266.148438 199.289062 262.359375 C 199.261719 262.179688 199.25 261.996094 199.257812 261.816406 C 198.96875 258.890625 198.742188 255.90625 198.515625 252.953125 C 198.464844 252.742188 198.441406 252.527344 198.453125 252.308594 C 197.683594 242.964844 197.007812 233.496094 196.367188 223.925781 C 195.722656 213.90625 195.113281 203.761719 194.472656 193.453125 C 194.117188 187.246094 193.742188 181.019531 193.347656 174.765625 C 193.125 171.460938 193.089844 168.183594 193.1875 164.910156 C 193.1875 164.171875 193.21875 163.464844 193.25 162.757812 C 194.496094 163.316406 195.804688 163.597656 197.167969 163.59375 C 198.007812 163.589844 198.832031 163.472656 199.640625 163.238281 C 201.519531 162.746094 203.105469 161.769531 204.394531 160.316406 C 207.457031 156.796875 210.121094 152.996094 212.375 148.910156 C 214.632812 144.824219 216.4375 140.546875 217.78125 136.074219 C 218.992188 132.355469 220.476562 128.746094 222.246094 125.253906 C 224.042969 121.890625 226.152344 118.730469 228.570312 115.785156 C 242.699219 98.445312 245.363281 72.660156 245.652344 58.308594 L 276.414062 69.804688 C 277.191406 70.109375 277.769531 70.632812 278.148438 71.375 C 287.234375 89.195312 293.015625 110.292969 296.289062 137.746094 C 303.386719 197.691406 310.738281 259.695312 308.234375 320.507812 Z M 308.234375 320.507812 " fill-opacity="1" fill-rule="nonzero"/></g><path fill="#4b4237" d="M 239.230469 57.667969 C 239.007812 70.925781 236.695312 95.617188 223.59375 111.738281 C 220.894531 115.011719 218.550781 118.519531 216.5625 122.269531 C 214.636719 126.074219 213.007812 130 211.683594 134.054688 C 210.476562 138.113281 208.851562 142.003906 206.808594 145.714844 C 204.769531 149.429688 202.359375 152.882812 199.578125 156.078125 C 198.9375 156.800781 198.132812 157.164062 197.167969 157.171875 C 196.707031 157.171875 196.269531 157.074219 195.851562 156.882812 C 195.539062 156.742188 195.257812 156.558594 195.003906 156.328125 C 194.75 156.097656 194.539062 155.835938 194.367188 155.535156 C 194.195312 155.238281 194.078125 154.925781 194.007812 154.589844 C 193.9375 154.253906 193.921875 153.914062 193.957031 153.574219 C 195.699219 140.109375 199.351562 127.179688 204.90625 114.789062 C 206.460938 111.402344 207.453125 107.859375 207.894531 104.160156 L 213.511719 51.824219 C 213.609375 51.050781 213.527344 50.304688 213.253906 49.574219 L 207.410156 33.550781 C 207.285156 33.199219 207.21875 32.835938 207.222656 32.460938 C 207.222656 32.082031 207.285156 31.71875 207.414062 31.367188 C 207.542969 31.011719 207.726562 30.691406 207.96875 30.402344 C 208.207031 30.117188 208.492188 29.878906 208.816406 29.6875 C 209.140625 29.5 209.488281 29.371094 209.855469 29.304688 C 210.226562 29.238281 210.597656 29.234375 210.96875 29.296875 C 211.335938 29.359375 211.6875 29.484375 212.011719 29.667969 C 212.339844 29.851562 212.625 30.089844 212.871094 30.375 L 225.554688 45.464844 L 228.25 48.035156 C 231.03125 50.710938 234.125 52.957031 237.53125 54.777344 C 238.054688 55.066406 238.472656 55.472656 238.777344 55.988281 C 239.082031 56.507812 239.234375 57.066406 239.230469 57.667969 Z M 239.230469 57.667969 " fill-opacity="1" fill-rule="nonzero"/><path fill="#4b4237" d="M 169.746094 114.789062 C 175.320312 127.175781 178.96875 140.105469 180.695312 153.574219 C 180.738281 153.914062 180.726562 154.25 180.65625 154.585938 C 180.589844 154.921875 180.472656 155.234375 180.308594 155.535156 C 180.140625 155.832031 179.929688 156.09375 179.679688 156.324219 C 179.425781 156.554688 179.144531 156.742188 178.835938 156.882812 C 178.417969 157.070312 177.976562 157.167969 177.519531 157.171875 C 176.550781 157.171875 175.75 156.804688 175.109375 156.078125 C 172.316406 152.882812 169.894531 149.425781 167.847656 145.707031 C 165.800781 141.988281 164.175781 138.09375 162.972656 134.019531 C 160.492188 125.800781 156.519531 118.382812 151.054688 111.761719 C 146.3125 105.679688 142.824219 98.949219 140.585938 91.566406 C 137.257812 80.507812 135.542969 69.207031 135.449219 57.660156 C 135.441406 57.058594 135.589844 56.496094 135.894531 55.976562 C 136.203125 55.457031 136.621094 55.054688 137.152344 54.769531 C 140.539062 52.941406 143.621094 50.691406 146.398438 48.027344 L 149.128906 45.457031 L 161.777344 30.367188 C 162.019531 30.070312 162.304688 29.824219 162.632812 29.628906 C 162.960938 29.429688 163.3125 29.300781 163.691406 29.230469 C 164.066406 29.160156 164.445312 29.15625 164.820312 29.222656 C 165.199219 29.289062 165.550781 29.417969 165.882812 29.609375 C 166.214844 29.800781 166.503906 30.042969 166.746094 30.335938 C 166.992188 30.632812 167.175781 30.960938 167.304688 31.320312 C 167.429688 31.683594 167.492188 32.054688 167.484375 32.4375 C 167.480469 32.820312 167.40625 33.1875 167.269531 33.546875 L 161.425781 49.503906 C 161.164062 50.253906 161.070312 51.023438 161.136719 51.816406 L 166.789062 104.183594 C 167.230469 107.871094 168.21875 111.40625 169.746094 114.789062 Z M 169.746094 114.789062 " fill-opacity="1" fill-rule="nonzero"/><path fill="#4b4237" d="M 200.894531 193.070312 C 200.507812 186.863281 200.121094 180.632812 199.738281 174.382812 C 199.511719 170.667969 199.480469 166.957031 199.640625 163.238281 C 198.832031 163.472656 198.007812 163.589844 197.167969 163.59375 C 195.804688 163.597656 194.496094 163.316406 193.25 162.757812 C 193.21875 163.464844 193.1875 164.171875 193.1875 164.910156 C 193.089844 168.183594 193.125 171.460938 193.347656 174.765625 C 193.734375 181.027344 194.109375 187.257812 194.472656 193.453125 C 195.113281 203.761719 195.722656 213.90625 196.367188 223.925781 C 197.007812 233.496094 197.683594 242.964844 198.453125 252.308594 C 198.441406 252.527344 198.464844 252.742188 198.515625 252.953125 C 198.742188 255.90625 198.96875 258.890625 199.257812 261.816406 C 199.25 261.996094 199.261719 262.179688 199.289062 262.359375 C 199.609375 266.148438 199.960938 269.90625 200.347656 273.664062 C 200.574219 275.847656 200.765625 277.996094 200.988281 280.179688 C 201.023438 280.375 201.023438 280.535156 201.054688 280.695312 C 201.472656 284.613281 201.890625 288.527344 202.371094 292.414062 C 202.722656 295.464844 203.109375 298.546875 203.527344 301.566406 C 203.527344 301.792969 203.558594 302.019531 203.621094 302.238281 C 203.65625 302.433594 203.65625 302.59375 203.6875 302.785156 C 203.75 303.460938 203.847656 304.132812 203.945312 304.808594 L 170.710938 304.808594 C 170.710938 304.742188 170.742188 304.648438 170.742188 304.582031 C 171.351562 300.214844 171.898438 295.816406 172.414062 291.417969 C 172.925781 287.179688 173.410156 282.910156 173.824219 278.640625 C 174.402344 273.179688 174.917969 267.660156 175.398438 262.136719 C 175.6875 259.148438 175.945312 256.132812 176.167969 253.113281 C 176.207031 252.835938 176.230469 252.558594 176.234375 252.277344 C 177.003906 242.710938 177.699219 233.023438 178.320312 223.21875 C 178.351562 222.898438 178.386719 222.578125 178.386719 222.257812 C 179.027344 212.753906 179.605469 203.121094 180.183594 193.390625 C 180.570312 187.226562 180.953125 180.996094 181.339844 174.765625 C 181.597656 170.753906 181.628906 166.742188 181.433594 162.726562 C 180.195312 163.304688 178.886719 163.59375 177.519531 163.59375 C 176.679688 163.597656 175.855469 163.492188 175.046875 163.273438 C 175.207031 166.976562 175.175781 170.679688 174.949219 174.382812 C 174.53125 180.609375 174.179688 186.808594 173.792969 192.972656 C 171.351562 233.171875 169.042969 271.15625 163.839844 307.570312 C 163.707031 308.542969 163.964844 309.398438 164.609375 310.136719 C 165.246094 310.875 166.046875 311.238281 167.019531 311.230469 L 207.636719 311.230469 C 207.867188 311.234375 208.09375 311.210938 208.320312 311.164062 C 208.546875 311.117188 208.765625 311.046875 208.976562 310.953125 C 209.1875 310.859375 209.386719 310.742188 209.570312 310.605469 C 209.757812 310.46875 209.925781 310.3125 210.074219 310.136719 C 210.226562 309.964844 210.359375 309.773438 210.46875 309.574219 C 210.578125 309.371094 210.664062 309.15625 210.730469 308.933594 C 210.792969 308.714844 210.832031 308.488281 210.847656 308.257812 C 210.859375 308.027344 210.851562 307.796875 210.816406 307.570312 C 205.640625 271.15625 203.332031 233.238281 200.894531 193.070312 Z M 201.34375 29.242188 L 173.3125 29.242188 C 173.6875 30.28125 173.875 31.347656 173.882812 32.453125 C 173.886719 33.554688 173.707031 34.625 173.34375 35.664062 L 201.34375 35.664062 C 200.964844 34.628906 200.777344 33.558594 200.777344 32.453125 C 200.777344 31.351562 200.964844 30.28125 201.34375 29.242188 Z M 178.386719 222.25 C 179.027344 212.746094 179.605469 203.113281 180.183594 193.382812 C 179.601562 203.117188 179 212.742188 178.386719 222.257812 Z M 178.386719 222.25 " fill-opacity="1" fill-rule="nonzero"/></svg>