<svg xmlns="http://www.w3.org/2000/svg" xmlns:xlink="http://www.w3.org/1999/xlink" width="500" zoomAndPan="magnify" viewBox="0 0 375 374.999991" height="500" preserveAspectRatio="xMidYMid meet" version="1.0"><defs><clipPath id="61b81e4974"><path d="M 71 38 L 305.230469 38 L 305.230469 323 L 71 323 Z M 71 38 " clip-rule="nonzero"/></clipPath></defs><g clip-path="url(#61b81e4974)"><path fill="#4b4237" d="M 305.277344 243.773438 C 303.253906 263.402344 295.132812 291.148438 295.132812 291.148438 C 292.253906 293.511719 276.691406 292.335938 276.691406 292.335938 C 271.777344 292.503906 262.640625 285.730469 262.640625 285.730469 C 264.40625 271.421875 265.351562 264.417969 265.351562 264.417969 C 268.402344 257.980469 267.046875 208.582031 267.046875 204.519531 C 267.046875 200.460938 259.601562 181.082031 259.601562 181.082031 C 256.554688 168.132812 257.230469 178.800781 257.230469 178.800781 L 260.269531 296.898438 C 263.996094 315.511719 262.980469 319.574219 262.980469 319.574219 C 245.386719 326 112.742188 319.574219 112.742188 319.574219 C 111.386719 312.121094 113.082031 291.148438 113.082031 291.148438 C 115.453125 279.640625 122.777344 166.964844 122.777344 166.964844 C 124.359375 160.191406 121.429688 166.289062 121.429688 166.289062 C 120.753906 164.933594 116.917969 181.171875 116.917969 181.171875 C 116.011719 182.082031 108.339844 219.242188 108 221.277344 C 107.671875 223.300781 109.1875 235.484375 109.1875 235.484375 C 109.695312 238.195312 106.65625 251.214844 106.65625 251.214844 C 105.636719 251.214844 103.605469 274.738281 103.605469 274.738281 C 104.285156 280.148438 108.339844 290.640625 108.339844 290.640625 C 109.695312 294.1875 107.5 295.882812 107.5 295.882812 C 104.792969 299.4375 87.367188 301.472656 87.367188 301.472656 C 82.285156 302.148438 78.789062 299.160156 78.789062 299.160156 C 78.339844 294.648438 72.023438 243.664062 72.023438 243.664062 C 69.769531 232.386719 87.027344 112.484375 87.367188 104.367188 C 87.703125 96.234375 97.519531 78.46875 97.519531 78.46875 L 111.894531 67.820312 C 120.773438 61.066406 153.960938 44.574219 155.804688 43.660156 C 155.855469 43.628906 155.882812 43.617188 155.882812 43.617188 C 156.730469 42.105469 159.78125 39.734375 159.78125 39.734375 C 181.9375 43.617188 195.648438 42.433594 195.648438 42.433594 C 198.855469 42.601562 206.976562 39.734375 206.976562 39.734375 C 210.871094 37.53125 214.140625 39.734375 214.140625 39.734375 C 214.417969 40.070312 215.566406 40.808594 217.367188 41.855469 C 229.992188 49.179688 274.597656 71.316406 274.597656 71.316406 C 280.019531 76.726562 284.074219 88.914062 284.074219 88.914062 C 293.996094 106.957031 305.277344 243.773438 305.277344 243.773438 Z M 305.277344 243.773438 " fill-opacity="1" fill-rule="nonzero"/><path fill="#a49694" d="M 305.277344 243.773438 C 303.253906 263.402344 295.132812 291.148438 295.132812 291.148438 C 292.253906 293.511719 276.691406 292.335938 276.691406 292.335938 C 271.777344 292.503906 262.640625 285.730469 262.640625 285.730469 C 264.40625 271.421875 265.351562 264.417969 265.351562 264.417969 C 268.402344 257.980469 267.046875 208.582031 267.046875 204.519531 C 267.046875 200.460938 259.601562 181.082031 259.601562 181.082031 C 256.554688 168.132812 257.230469 178.800781 257.230469 178.800781 L 260.269531 296.898438 C 263.996094 315.511719 262.980469 319.574219 262.980469 319.574219 C 245.386719 326 112.742188 319.574219 112.742188 319.574219 C 111.386719 312.121094 113.082031 291.148438 113.082031 291.148438 C 115.453125 279.640625 122.777344 166.964844 122.777344 166.964844 C 124.359375 160.191406 121.429688 166.289062 121.429688 166.289062 C 120.753906 164.933594 116.917969 181.171875 116.917969 181.171875 C 116.011719 182.082031 108.339844 219.242188 108 221.277344 C 107.671875 223.300781 109.1875 235.484375 109.1875 235.484375 C 109.695312 238.195312 106.65625 251.214844 106.65625 251.214844 C 105.636719 251.214844 103.605469 274.738281 103.605469 274.738281 C 104.285156 280.148438 108.339844 290.640625 108.339844 290.640625 C 109.695312 294.1875 107.5 295.882812 107.5 295.882812 C 104.792969 299.4375 87.367188 301.472656 87.367188 301.472656 C 82.285156 302.148438 78.789062 299.160156 78.789062 299.160156 C 78.339844 294.648438 72.023438 243.664062 72.023438 243.664062 C 69.769531 232.386719 87.027344 112.484375 87.367188 104.367188 C 87.703125 96.234375 97.519531 78.46875 97.519531 78.46875 L 111.894531 67.820312 C 120.773438 61.066406 153.960938 44.574219 155.804688 43.660156 C 155.855469 43.628906 155.882812 43.617188 155.882812 43.617188 C 156.730469 42.105469 159.78125 39.734375 159.78125 39.734375 C 181.9375 43.617188 195.648438 42.433594 195.648438 42.433594 C 198.855469 42.601562 206.976562 39.734375 206.976562 39.734375 C 210.871094 37.53125 214.140625 39.734375 214.140625 39.734375 C 214.417969 40.070312 215.566406 40.808594 217.367188 41.855469 C 229.992188 49.179688 274.597656 71.316406 274.597656 71.316406 C 280.019531 76.726562 284.074219 88.914062 284.074219 88.914062 C 293.996094 106.957031 305.277344 243.773438 305.277344 243.773438 Z M 305.277344 243.773438 " fill-opacity="1" fill-rule="nonzero"/></g></svg>