<svg xmlns="http://www.w3.org/2000/svg" xmlns:xlink="http://www.w3.org/1999/xlink" width="500" zoomAndPan="magnify" viewBox="0 0 375 374.999991" height="500" preserveAspectRatio="xMidYMid meet" version="1.0"><defs><clipPath id="495fbf40a5"><path d="M 62.046875 37.5 L 313 37.5 L 313 337.5 L 62.046875 337.5 Z M 62.046875 37.5 " clip-rule="nonzero"/></clipPath></defs><g clip-path="url(#495fbf40a5)"><path fill="#a49694" d="M 282.164062 302.496094 C 282.371094 303.832031 282.5625 305.152344 282.777344 306.46875 C 282.820312 306.832031 282.917969 307.175781 283.070312 307.503906 C 283.808594 309.199219 284.015625 310.957031 283.699219 312.78125 C 283.699219 313.15625 283.511719 313.722656 283.285156 313.816406 C 282.117188 314.484375 281.148438 315.578125 279.746094 315.699219 C 278.726562 315.875 277.730469 316.144531 276.757812 316.5 C 276.332031 316.644531 275.898438 316.746094 275.449219 316.800781 C 273.332031 316.933594 271.203125 317.007812 269.074219 317.121094 C 268.703125 317.105469 268.347656 317.171875 268.011719 317.320312 C 266.507812 318.074219 264.921875 318.386719 263.246094 318.261719 L 236.957031 318.328125 C 236.109375 318.328125 235.273438 318.429688 234.433594 318.421875 C 233.597656 318.410156 233.34375 318.921875 233.351562 319.796875 C 233.359375 320.671875 233.351562 321.746094 233.351562 322.714844 C 233.351562 324.46875 233.351562 326.21875 233.425781 327.953125 C 233.457031 328.894531 233.28125 329.800781 232.898438 330.660156 C 232.515625 331.523438 231.964844 332.261719 231.242188 332.867188 C 230.808594 333.390625 230.289062 333.800781 229.679688 334.101562 C 229.070312 334.402344 228.425781 334.566406 227.746094 334.59375 C 227.511719 334.570312 227.292969 334.628906 227.097656 334.761719 C 225.761719 335.835938 224.226562 335.703125 222.726562 335.855469 C 221.835938 335.96875 220.980469 336.207031 220.15625 336.570312 C 218.199219 337.308594 216.210938 337.417969 214.183594 336.898438 C 213.554688 336.769531 212.914062 335.957031 212.519531 335.214844 C 212.015625 334.195312 211.601562 333.140625 211.273438 332.050781 C 211.195312 331.648438 211.007812 331.308594 210.714844 331.023438 C 210.421875 330.742188 210.074219 330.566406 209.675781 330.496094 C 205.558594 330.082031 201.449219 330.140625 197.347656 330.675781 C 196.425781 330.917969 195.664062 331.410156 195.066406 332.152344 C 193.84375 333.480469 192.570312 334.46875 190.855469 334.433594 C 187.089844 334.355469 183.324219 334.433594 179.554688 334.148438 C 177.996094 333.957031 176.53125 333.46875 175.167969 332.691406 C 174.324219 332.140625 173.726562 331.398438 173.367188 330.457031 C 172.976562 329.398438 172.765625 328.308594 172.738281 327.179688 C 172.730469 326.808594 172.664062 326.445312 172.539062 326.09375 C 172.417969 325.742188 172.242188 325.417969 172.015625 325.125 C 171.789062 324.828125 171.519531 324.578125 171.210938 324.367188 C 170.902344 324.160156 170.570312 324.003906 170.210938 323.902344 C 169.445312 323.71875 168.667969 323.617188 167.875 323.601562 C 164.484375 323.601562 161.105469 323.601562 157.722656 323.800781 C 156.78125 323.847656 155.90625 324.550781 154.972656 324.863281 C 154.597656 324.953125 154.269531 325.128906 153.984375 325.390625 C 153.699219 325.652344 153.496094 325.964844 153.371094 326.332031 C 152.308594 329.015625 150.125 329.695312 147.949219 330.015625 C 145.039062 330.453125 142.136719 330.402344 139.246094 329.863281 C 137.265625 329.433594 135.261719 329.195312 133.238281 329.140625 C 130.796875 329.140625 129.074219 326.3125 129.226562 323.921875 C 129.347656 321.980469 129.28125 320.03125 129.328125 318.082031 C 129.328125 317.328125 129.148438 316.980469 128.480469 317 C 126.265625 317.066406 124.054688 317.074219 121.886719 317.113281 C 121.6875 317.109375 121.492188 317.140625 121.304688 317.214844 C 118.375 318.609375 115.296875 318.28125 112.253906 318.382812 C 109.378906 318.476562 106.488281 318.382812 103.609375 318.25 C 102.675781 318.074219 101.769531 317.8125 100.886719 317.460938 C 100.101562 317.261719 99.308594 317.113281 98.503906 317.019531 C 97.371094 316.886719 96.1875 317.019531 95.261719 315.972656 C 95.132812 315.84375 94.976562 315.785156 94.792969 315.792969 C 93.277344 315.792969 92.164062 314.558594 90.921875 313.804688 C 89.253906 312.789062 88.519531 308.824219 89.433594 306.863281 C 89.683594 306.332031 89.832031 305.773438 89.875 305.1875 C 89.96875 303.851562 89.960938 302.503906 90.046875 301.167969 C 90.101562 300.609375 90.207031 300.058594 90.367188 299.519531 C 90.460938 299.257812 90.5 298.992188 90.480469 298.714844 C 90.464844 298.441406 90.394531 298.179688 90.269531 297.933594 C 90.144531 297.6875 89.976562 297.476562 89.761719 297.300781 C 89.550781 297.125 89.3125 296.996094 89.046875 296.917969 C 88.546875 296.824219 88.039062 296.789062 87.550781 296.664062 C 87.222656 296.554688 86.910156 296.414062 86.609375 296.242188 C 86.050781 295.96875 85.488281 295.6875 84.941406 295.394531 L 83.273438 294.519531 C 83.179688 294.460938 83.09375 294.339844 82.992188 294.320312 C 80.5625 293.847656 78.535156 292.078125 76.238281 291.15625 C 75.109375 290.566406 74.046875 289.878906 73.046875 289.09375 C 72.828125 288.953125 72.566406 288.933594 72.347656 288.800781 C 71.859375 288.519531 71.40625 288.199219 70.90625 287.859375 C 70.785156 287.785156 70.699219 287.632812 70.578125 287.566406 C 69.515625 287.0625 68.496094 286.480469 67.527344 285.816406 C 65.644531 284.28125 63.542969 282.914062 62.5625 280.164062 C 62.296875 279.496094 62.175781 278.800781 62.199219 278.078125 C 62.222656 277.355469 62.390625 276.671875 62.703125 276.019531 C 62.777344 275.914062 62.839844 275.800781 62.894531 275.683594 C 63.34375 273.714844 63.777344 271.726562 64.230469 269.757812 C 64.484375 268.675781 64.765625 267.589844 65.039062 266.519531 C 65.089844 266.398438 65.136719 266.277344 65.171875 266.152344 C 65.402344 264.238281 65.78125 262.351562 66.3125 260.5 C 67.007812 257.722656 67.207031 254.773438 67.875 252.023438 C 68.328125 250.140625 68.46875 248.191406 68.96875 246.371094 C 69.523438 244.421875 69.617188 242.359375 70.171875 240.488281 C 70.652344 238.886719 70.738281 237.21875 71.191406 235.683594 C 71.691406 233.96875 71.878906 232.179688 72.328125 230.503906 C 72.617188 228.828125 73.011719 227.183594 73.507812 225.558594 C 74.167969 223.96875 74.054688 222.28125 74.550781 220.773438 C 75.050781 219.265625 75.25 217.460938 75.832031 215.972656 C 76.253906 214.765625 76.535156 213.53125 76.671875 212.261719 C 76.671875 212.058594 76.714844 211.867188 76.804688 211.6875 C 77.746094 210.582031 77.652344 209.125 77.800781 207.738281 C 77.863281 207.453125 77.949219 207.175781 78.054688 206.902344 C 78.339844 205.960938 78.546875 204.933594 78.886719 204 C 79.527344 202.257812 79.828125 200.402344 80.375 198.621094 C 80.65625 197.632812 80.871094 196.605469 81.191406 195.648438 C 81.75 193.96875 82.03125 192.199219 82.585938 190.5625 C 82.96875 189.492188 83.261719 188.398438 83.472656 187.285156 C 83.578125 186.839844 83.730469 186.414062 83.933594 186.003906 C 84 185.851562 84.140625 185.75 84.179688 185.597656 C 84.640625 183.835938 85.074219 182.074219 85.542969 180.324219 C 85.714844 179.671875 85.984375 179.0625 86.195312 178.441406 C 86.402344 177.816406 86.476562 177.375 86.644531 176.859375 C 86.910156 176.039062 87.191406 175.226562 87.472656 174.417969 C 87.472656 174.351562 87.558594 174.296875 87.558594 174.238281 C 87.558594 172.300781 88.5 170.679688 88.894531 168.863281 C 89.085938 168.023438 89.453125 167.242188 89.695312 166.414062 C 89.847656 165.914062 89.875 165.367188 90.027344 164.867188 C 90.269531 164.039062 90.574219 163.238281 90.847656 162.417969 C 90.921875 162.175781 90.988281 161.921875 91.0625 161.675781 C 91.382812 160.621094 91.710938 159.574219 92.003906 158.519531 C 92.109375 158.144531 92.136719 157.730469 92.25 157.363281 C 92.523438 156.421875 92.8125 155.582031 93.097656 154.695312 C 93.097656 154.632812 93.183594 154.59375 93.191406 154.527344 C 93.632812 152.859375 94.058594 151.191406 94.507812 149.527344 C 94.707031 148.808594 94.980469 148.132812 95.207031 147.425781 C 95.375 146.96875 95.507812 146.5 95.613281 146.023438 C 95.761719 145.136719 95.742188 144.1875 96.488281 143.613281 C 96.515625 143.59375 96.53125 143.570312 96.535156 143.535156 C 96.535156 141.898438 97.410156 140.617188 97.777344 139.136719 C 97.996094 138.28125 97.9375 137.3125 98.671875 136.738281 C 98.714844 136.6875 98.746094 136.632812 98.757812 136.566406 C 99.21875 134.9375 99.632812 133.28125 100.140625 131.679688 C 100.714844 129.890625 101.386719 128.148438 102.023438 126.394531 C 102.121094 126.121094 102.234375 125.859375 102.335938 125.585938 C 102.628906 124.8125 102.910156 124.03125 103.210938 123.257812 C 103.210938 123.164062 103.296875 123.089844 103.324219 122.996094 C 103.796875 121.507812 104.21875 119.992188 104.757812 118.539062 C 105.292969 117.089844 106.007812 115.515625 106.640625 114.011719 C 106.707031 113.859375 106.742188 113.699219 106.800781 113.539062 C 107.28125 112.144531 107.742188 110.714844 108.269531 109.347656 C 108.796875 107.984375 109.492188 106.9375 110.019531 105.683594 C 110.546875 104.433594 110.964844 102.953125 111.5 101.636719 C 112.035156 100.316406 112.675781 99.09375 113.269531 97.867188 C 113.328125 97.753906 113.402344 97.652344 113.449219 97.527344 C 113.9375 96.171875 114.390625 94.777344 114.9375 93.460938 C 115.484375 92.140625 116.152344 91.011719 116.753906 89.777344 C 116.878906 89.523438 116.894531 89.195312 117 88.929688 C 117.234375 88.382812 117.507812 87.847656 117.761719 87.308594 C 117.820312 87.195312 117.933594 87.121094 117.980469 87.007812 C 118.449219 85.746094 118.875 84.445312 119.402344 83.242188 C 119.929688 82.035156 120.636719 80.746094 121.210938 79.472656 C 121.785156 78.203125 122.152344 77.121094 122.640625 75.933594 C 122.707031 75.78125 122.699219 75.574219 122.78125 75.472656 C 123.722656 74.371094 123.640625 72.929688 123.789062 71.535156 C 123.945312 70.851562 124.171875 70.191406 124.46875 69.558594 C 124.582031 69.285156 124.65625 69.003906 124.695312 68.710938 C 124.78125 67.609375 124.761719 66.488281 124.902344 65.402344 C 125.089844 63.960938 125.417969 62.578125 125.636719 61.109375 C 125.789062 60.09375 125.890625 59.054688 125.945312 58.019531 C 126.042969 56.351562 125.945312 54.65625 126.804688 53.167969 C 126.953125 52.828125 127.011719 52.46875 126.984375 52.097656 C 126.984375 49.203125 128.121094 46.914062 129.449219 44.703125 C 129.621094 44.492188 129.824219 44.328125 130.0625 44.203125 C 130.457031 43.910156 130.871094 43.644531 131.304688 43.414062 C 131.828125 43.136719 132.378906 42.9375 132.953125 42.808594 C 133.847656 42.832031 134.632812 42.550781 135.308594 41.960938 C 135.679688 41.667969 136.097656 41.523438 136.570312 41.527344 C 137.511719 41.425781 138.453125 41.527344 139.339844 41.359375 C 140.226562 41.191406 141.222656 40.898438 142.109375 40.71875 C 143.257812 40.492188 144.425781 40.277344 145.59375 40.164062 C 146.761719 40.050781 147.835938 40.117188 148.945312 39.984375 C 150.058594 39.851562 151.355469 39.542969 152.570312 39.351562 C 153.835938 39.097656 155.109375 38.921875 156.394531 38.824219 C 160.117188 38.683594 163.847656 38.710938 167.554688 38.523438 C 169.441406 38.429688 171.324219 37.828125 173.207031 37.78125 C 180.816406 37.625 188.433594 37.539062 196.054688 37.527344 C 201.367188 37.527344 206.6875 37.621094 212.011719 37.742188 C 212.8125 37.851562 213.59375 38.046875 214.355469 38.328125 C 214.707031 38.429688 215.0625 38.488281 215.429688 38.503906 C 218.980469 38.601562 222.539062 38.664062 226.089844 38.742188 C 227.597656 38.648438 229.019531 38.960938 230.347656 39.683594 C 230.734375 39.871094 231.140625 39.953125 231.570312 39.929688 C 233.332031 40.023438 235.101562 40.003906 236.855469 40.183594 C 237.644531 40.363281 238.402344 40.640625 239.125 41.011719 C 239.332031 41.085938 239.53125 41.285156 239.738281 41.292969 C 241.203125 41.433594 242.511719 41.964844 243.664062 42.886719 C 245.082031 43.917969 246.144531 45.238281 246.855469 46.839844 C 247.667969 48.832031 248.054688 50.898438 248.023438 53.046875 C 248.023438 53.28125 248.054688 53.511719 248.117188 53.734375 C 248.957031 55.976562 248.957031 58.359375 249.0625 60.742188 C 249.117188 61.796875 249.429688 62.824219 249.578125 63.867188 C 249.777344 65.148438 249.910156 66.449219 250.117188 67.730469 C 250.324219 69.011719 250.597656 70.179688 250.839844 71.402344 C 250.917969 71.621094 250.976562 71.84375 251.011719 72.070312 C 250.964844 74.105469 251.839844 75.792969 252.453125 77.554688 C 252.941406 78.691406 253.488281 79.800781 254.097656 80.878906 C 254.664062 82.046875 255.171875 83.25 255.738281 84.429688 C 256.304688 85.605469 256.8125 86.585938 257.347656 87.660156 C 257.40625 87.773438 257.507812 87.855469 257.554688 87.96875 C 258.082031 89.277344 258.582031 90.605469 259.136719 91.886719 C 259.695312 93.167969 260.230469 94.234375 260.777344 95.390625 C 260.863281 95.570312 260.984375 95.71875 261.050781 95.898438 C 261.445312 96.917969 261.839844 97.933594 262.207031 98.949219 C 262.71875 100.335938 263.148438 101.777344 263.714844 103.113281 C 264.28125 104.453125 264.855469 105.523438 265.382812 106.757812 C 265.804688 107.699219 266.171875 108.738281 266.523438 109.746094 C 267.085938 111.382812 267.605469 113.039062 268.171875 114.667969 C 268.339844 115.148438 268.679688 115.546875 268.859375 116.027344 C 269.355469 117.421875 269.800781 118.851562 270.289062 120.246094 C 270.882812 121.914062 271.53125 123.550781 272.171875 125.207031 C 272.171875 125.304688 272.265625 125.378906 272.296875 125.464844 C 272.785156 126.941406 273.238281 128.429688 273.746094 129.898438 C 274.300781 131.527344 274.886719 133.148438 275.449219 134.769531 C 275.449219 134.863281 275.535156 134.945312 275.5625 135.042969 C 276.101562 136.925781 276.589844 138.753906 277.164062 140.589844 C 277.738281 142.425781 278.351562 143.980469 278.898438 145.703125 C 279.445312 147.425781 279.941406 149.253906 280.46875 151.035156 C 280.613281 151.496094 280.78125 151.976562 280.941406 152.390625 C 280.941406 152.511719 281.074219 152.617188 281.109375 152.738281 C 281.65625 154.679688 282.195312 156.617188 282.730469 158.558594 C 282.824219 158.867188 282.804688 159.3125 282.984375 159.5 C 283.710938 160.28125 283.699219 161.335938 283.859375 162.324219 C 284.027344 162.921875 284.238281 163.5 284.5 164.058594 C 284.671875 164.585938 284.773438 165.132812 284.925781 165.660156 C 285.167969 166.496094 285.453125 167.308594 285.660156 168.15625 C 285.867188 169.003906 285.914062 169.652344 286.09375 170.386719 C 286.273438 171.121094 286.507812 171.582031 286.667969 172.195312 C 286.894531 173.089844 287.042969 174.003906 287.261719 174.890625 C 287.375 175.339844 287.589844 175.753906 287.722656 176.207031 C 287.929688 176.859375 288.078125 177.527344 288.277344 178.167969 C 288.476562 178.808594 288.765625 179.609375 289.003906 180.332031 C 289.144531 180.765625 289.246094 181.21875 289.371094 181.660156 C 289.625 182.601562 289.898438 183.542969 290.132812 184.484375 C 290.652344 186.578125 291.140625 188.675781 291.667969 190.769531 C 291.835938 191.457031 292.109375 192.105469 292.289062 192.792969 C 292.46875 193.480469 292.609375 194.414062 292.796875 195.214844 C 292.941406 195.855469 293.128906 196.476562 293.308594 197.097656 C 293.472656 197.527344 293.617188 197.960938 293.738281 198.40625 C 293.933594 199.730469 294.246094 201.027344 294.683594 202.296875 C 295.332031 204.460938 295.835938 206.65625 296.1875 208.886719 C 296.226562 209.320312 296.316406 209.738281 296.453125 210.152344 C 297.0625 211.460938 297.375 212.839844 297.394531 214.285156 C 297.394531 214.417969 297.394531 214.597656 297.449219 214.671875 C 298.394531 215.886719 298.214844 217.496094 298.535156 218.917969 C 299.023438 221.046875 299.730469 223.101562 300.25 225.21875 C 300.8125 227.519531 301.265625 229.84375 301.792969 232.152344 C 301.960938 232.875 302.246094 233.5625 302.414062 234.289062 C 302.621094 235.230469 302.734375 236.117188 302.933594 237.019531 C 303.515625 239.628906 304.128906 242.230469 304.722656 244.828125 C 304.722656 244.933594 304.796875 245.015625 304.816406 245.109375 C 305.324219 247.425781 305.757812 249.761719 306.339844 252.0625 C 306.804688 254.019531 307.367188 255.941406 307.894531 257.882812 C 308.035156 258.390625 308.242188 258.871094 308.347656 259.386719 C 308.585938 260.574219 308.902344 261.738281 309.289062 262.882812 C 309.933594 265.089844 310.457031 267.324219 310.851562 269.589844 C 310.957031 270.058594 311.125 270.53125 311.277344 270.972656 C 311.277344 271.03125 311.34375 271.078125 311.363281 271.140625 C 311.851562 272.921875 312.398438 274.691406 312.800781 276.511719 C 312.90625 277.382812 312.722656 278.191406 312.246094 278.929688 C 311.078125 281.3125 309.167969 282.699219 307.453125 284.300781 C 306.589844 284.996094 305.679688 285.625 304.722656 286.183594 C 304.15625 286.578125 303.601562 287.011719 303.046875 287.445312 L 300.21875 289.582031 C 300.132812 289.664062 300.039062 289.734375 299.9375 289.800781 C 298.84375 290.410156 297.734375 290.976562 296.667969 291.683594 C 295.605469 292.390625 294.785156 293.105469 293.789062 293.792969 C 293.003906 294.359375 292.1875 294.867188 291.394531 295.433594 C 290.339844 296.203125 289.324219 297.042969 288.257812 297.796875 C 287.316406 298.425781 286.375 298.980469 285.5 299.574219 C 285.261719 299.734375 285.035156 299.910156 284.820312 300.101562 C 284.660156 300.234375 284.539062 300.488281 284.378906 300.535156 C 283.867188 300.648438 283.410156 300.878906 283.019531 301.230469 C 282.625 301.578125 282.339844 302 282.164062 302.496094 Z M 282.164062 302.496094 " fill-opacity="1" fill-rule="nonzero"/></g></svg>