<svg xmlns="http://www.w3.org/2000/svg" xmlns:xlink="http://www.w3.org/1999/xlink" width="500" zoomAndPan="magnify" viewBox="0 0 375 374.999991" height="500" preserveAspectRatio="xMidYMid meet" version="1.0"><defs><clipPath id="3efcd59dae"><path d="M 135.957031 38 L 238.707031 38 L 238.707031 337.5 L 135.957031 337.5 Z M 135.957031 38 " clip-rule="nonzero"/></clipPath></defs><g clip-path="url(#3efcd59dae)"><path fill="#a49694" d="M 213.03125 337.417969 C 207.925781 336.933594 204.980469 335.492188 203.601562 332.8125 C 203.085938 331.8125 203.054688 331.128906 203.179688 324.296875 C 203.550781 304.191406 203.574219 298.519531 203.320312 289.828125 C 203.167969 284.652344 202.972656 273.289062 202.882812 264.578125 C 202.796875 255.867188 202.585938 246.722656 202.417969 244.257812 C 202.132812 240.109375 202.179688 235.003906 202.597656 223.640625 C 202.773438 218.84375 202.769531 216.695312 202.566406 195.703125 C 202.425781 181.078125 202.449219 181.5 201.359375 170.605469 C 200.21875 159.207031 199.558594 154.792969 197.921875 147.570312 C 195.03125 134.796875 193.363281 125.097656 191.816406 112.035156 C 191.070312 105.75 189.828125 98.347656 189.40625 97.660156 C 189.113281 97.191406 187.910156 96.820312 187.242188 96.996094 C 186.566406 97.171875 186.164062 98.011719 185.679688 100.234375 C 185.457031 101.246094 185.316406 112.6875 185.242188 135.640625 C 185.15625 160.59375 185.007812 172.046875 184.664062 178.96875 C 184.410156 184.144531 184.136719 188.859375 184.054688 189.445312 C 183.777344 191.46875 183.269531 205.738281 183.28125 211.238281 C 183.285156 214.28125 183.492188 220.332031 183.742188 224.6875 C 183.988281 229.042969 184.191406 235.695312 184.195312 239.476562 C 184.199219 243.453125 184.398438 248.238281 184.664062 250.832031 C 184.914062 253.296875 185.234375 256.996094 185.375 259.046875 C 185.515625 261.101562 185.925781 265.472656 186.28125 268.761719 C 186.984375 275.21875 187.128906 284.917969 186.957031 313.429688 C 186.839844 332.480469 186.601562 333.5625 182.097656 335.273438 C 179.847656 336.128906 175.324219 336.476562 170.890625 336.140625 C 164.992188 335.691406 161.636719 334.574219 159.757812 332.433594 C 158.0625 330.5 158.0625 330.535156 158.007812 312.832031 C 157.957031 296.347656 157.574219 280.054688 157.03125 271.597656 C 156.871094 269.050781 156.59375 263.875 156.421875 260.09375 C 156.246094 256.316406 156.03125 251.609375 155.9375 249.636719 C 155.847656 247.664062 155.457031 243.363281 155.070312 240.074219 C 154.0625 231.5 153.753906 226.210938 153.574219 214.378906 C 153.480469 208.035156 153.242188 202.4375 152.972656 200.15625 C 152.726562 198.085938 152.328125 193.445312 152.082031 189.847656 C 151.835938 186.246094 151.5 182.390625 151.332031 181.277344 C 151.164062 180.160156 150.824219 177.269531 150.574219 174.851562 C 150.320312 172.433594 149.855469 168.773438 149.539062 166.71875 C 149.21875 164.664062 148.746094 161.042969 148.484375 158.667969 C 148.222656 156.296875 147.953125 154.265625 147.886719 154.160156 C 147.824219 154.054688 147.363281 151.828125 146.867188 149.214844 C 145.9375 144.320312 145.5625 142.53125 143.75 134.253906 C 141.789062 125.320312 140.6875 118.792969 138.355469 102.324219 C 136.523438 89.378906 136.007812 83.617188 135.996094 76.03125 C 135.988281 67.847656 136.226562 65.769531 138.035156 58.191406 C 139.457031 52.230469 140.074219 49.390625 141.324219 43.027344 C 141.832031 40.4375 142.230469 39.125 142.640625 38.71875 C 143.226562 38.132812 143.242188 38.132812 145.859375 38.773438 C 151.6875 40.199219 157.984375 41.191406 163.179688 41.5 C 165.507812 41.636719 167.546875 41.832031 167.710938 41.933594 C 168.605469 42.488281 177.554688 43.089844 185.390625 43.125 C 194.546875 43.164062 197.195312 42.90625 203.914062 41.324219 C 205.765625 40.886719 209.667969 40.351562 213.472656 40.007812 C 217.011719 39.6875 221.757812 39.132812 224.023438 38.773438 C 229.609375 37.886719 229.285156 37.503906 230.203125 46.148438 C 230.394531 47.957031 230.742188 50.578125 230.96875 51.976562 C 232.574219 61.738281 233.175781 66.035156 233.003906 66.488281 C 232.875 66.820312 232.917969 66.941406 233.113281 66.820312 C 233.3125 66.695312 233.484375 67.25 233.585938 68.339844 C 233.671875 69.28125 233.882812 70.859375 234.058594 71.847656 C 234.417969 73.878906 235.769531 86.597656 236.058594 90.671875 C 236.160156 92.148438 236.699219 97.527344 237.246094 102.621094 C 238.945312 118.335938 238.976562 119.082031 238.769531 136.835938 C 238.582031 152.699219 238.375 156.84375 237.234375 167.3125 C 236.328125 175.679688 235.957031 181.59375 235.742188 191.21875 C 235.664062 194.585938 235.46875 199.226562 235.304688 201.527344 C 235.011719 205.652344 234.417969 218.625 233.792969 234.394531 C 233.515625 241.445312 233.484375 250.007812 233.613281 282.953125 C 233.660156 294.875 233.230469 320.28125 232.945312 322.585938 C 232.800781 323.757812 232.5625 324.902344 232.417969 325.125 C 232.273438 325.347656 232.144531 326.675781 232.136719 328.070312 C 232.109375 331.378906 231.640625 332.910156 230.175781 334.5 C 228.539062 336.277344 226.289062 337.035156 222.144531 337.210938 C 216.65625 337.445312 213.953125 337.503906 213.03125 337.417969 Z M 185.019531 57.152344 C 184.730469 57.078125 184.496094 56.867188 184.496094 56.6875 C 184.496094 56.507812 184.414062 56.441406 184.316406 56.542969 C 184.015625 56.839844 184.496094 57.359375 185.035156 57.324219 C 185.492188 57.292969 185.488281 57.277344 185.019531 57.152344 Z M 190.660156 52.109375 C 191.519531 51.195312 191.667969 50.828125 191.667969 49.574219 C 191.667969 48.375 191.507812 47.925781 190.796875 47.132812 C 190.070312 46.316406 189.730469 46.167969 188.699219 46.195312 C 185.800781 46.269531 184.488281 49.910156 186.5 52.300781 C 187.09375 53 187.476562 53.175781 188.445312 53.175781 C 189.445312 53.175781 189.828125 52.988281 190.660156 52.109375 Z M 188.378906 50.660156 C 188.378906 50.425781 188.222656 50.183594 188.027344 50.121094 C 187.5625 49.964844 187.929688 49.03125 188.546875 48.792969 C 189.34375 48.488281 189.949219 49.351562 189.59375 50.285156 C 189.277344 51.117188 188.378906 51.394531 188.378906 50.660156 Z M 188.378906 50.660156 " fill-opacity="1" fill-rule="nonzero"/></g></svg>