<svg xmlns="http://www.w3.org/2000/svg" xmlns:xlink="http://www.w3.org/1999/xlink" width="500" zoomAndPan="magnify" viewBox="0 0 375 374.999991" height="500" preserveAspectRatio="xMidYMid meet" version="1.0"><defs><clipPath id="aa0f72de04"><path d="M 37.5 52.5 L 337.5 52.5 L 337.5 322.5 L 37.5 322.5 Z M 37.5 52.5 " clip-rule="nonzero"/></clipPath></defs><g clip-path="url(#aa0f72de04)"><path fill="#a49694" d="M 337.398438 285.316406 C 337.242188 287.691406 337.230469 290.117188 336.910156 292.460938 C 336.421875 296.054688 334.886719 297.769531 332.042969 298.148438 C 330.230469 298.382812 328.402344 298.507812 326.578125 298.644531 C 325.507812 298.734375 324.4375 298.789062 323.375 298.800781 C 320.394531 298.976562 317.472656 299.5 314.613281 300.367188 C 311.566406 301.015625 308.484375 301.402344 305.375 301.527344 C 299.6875 301.925781 294 302.128906 288.324219 302.5 C 287.433594 302.6875 286.597656 303.015625 285.8125 303.472656 C 285.042969 303.902344 284.230469 304.226562 283.378906 304.449219 C 278.375 305.070312 273.359375 305.597656 268.34375 306.140625 C 266.699219 306.296875 265.144531 306.757812 263.679688 307.523438 C 261.957031 308.429688 259.941406 308.5 258.03125 308.75 C 254.847656 309.179688 251.644531 309.472656 248.453125 309.832031 C 248.128906 309.820312 247.828125 309.902344 247.554688 310.074219 C 245.394531 312.109375 242.785156 311.945312 240.332031 312.511719 C 239.074219 312.800781 237.800781 312.851562 236.535156 313.074219 C 235.007812 313.171875 233.644531 313.699219 232.453125 314.660156 C 231.539062 315.488281 230.265625 315.636719 229.144531 316.074219 C 228.023438 316.511719 227.070312 316.726562 226.039062 317.097656 C 225.746094 317.1875 225.519531 317.363281 225.355469 317.621094 C 224.679688 318.835938 223.707031 319.71875 222.433594 320.28125 C 221.8125 320.65625 221.277344 321.128906 220.828125 321.703125 C 220.109375 322.507812 219.464844 322.546875 218.714844 321.769531 C 217.964844 320.992188 217.246094 320.476562 216.523438 319.824219 C 216.117188 319.453125 215.757812 319.046875 215.445312 318.59375 C 214.128906 316.648438 212.875 314.613281 211.550781 312.683594 C 209.992188 310.457031 208.21875 308.449219 206.828125 306.074219 C 205.550781 303.914062 203.769531 302.179688 203.109375 299.433594 C 202.984375 299.144531 202.78125 298.933594 202.496094 298.800781 C 202 298.519531 201.582031 298.148438 201.246094 297.691406 C 200.90625 297.234375 200.671875 296.726562 200.546875 296.171875 C 200.308594 295.636719 199.984375 295.164062 199.574219 294.75 C 199.203125 294.300781 198.601562 294 198.433594 293.464844 C 197.773438 290.855469 195.855469 289.472656 194.871094 287.203125 C 194.832031 287.082031 194.773438 286.972656 194.695312 286.875 C 192.5625 284.644531 191.929688 281.597656 191.773438 278.226562 C 191.695312 277.691406 191.515625 277.191406 191.238281 276.726562 C 190.867188 275.953125 190.453125 275.203125 189.992188 274.476562 C 189.679688 273.992188 189.3125 273.378906 188.902344 273.25 C 188.648438 273.183594 188.25 273.972656 187.929688 274.382812 C 187.414062 275.054688 186.886719 275.722656 186.378906 276.40625 C 185.875 277.085938 185.582031 277.546875 185.203125 278.140625 C 184.648438 279.015625 184.113281 279.902344 183.574219 280.796875 C 183.332031 281.164062 183.132812 281.550781 182.980469 281.964844 C 182.308594 284.128906 181.921875 286.386719 180.421875 288.089844 C 179.632812 288.976562 179.449219 290.679688 178.835938 291.917969 C 178.015625 293.648438 177.101562 295.296875 176.214844 296.96875 C 176.125 297.199219 175.984375 297.394531 175.796875 297.554688 C 174.5 298.324219 174.171875 299.882812 173.710938 301.449219 C 173.296875 302.523438 172.773438 303.542969 172.144531 304.507812 C 171.894531 304.875 171.664062 305.261719 171.453125 305.65625 C 170.832031 307.125 170.34375 308.703125 169.03125 309.480469 C 168.757812 309.648438 168.609375 310.269531 168.484375 310.71875 C 167.296875 314.738281 165.078125 317.398438 161.96875 318.847656 C 160.304688 319.628906 158.796875 318.847656 157.277344 318.050781 C 156.324219 317.5 155.332031 317.027344 154.308594 316.628906 C 152.574219 316.082031 150.65625 316.113281 149.070312 315.199219 C 144.765625 312.714844 140.167969 313.113281 135.699219 312.324219 C 133.890625 312.003906 132.070312 311.710938 130.265625 311.351562 C 129.941406 311.335938 129.644531 311.238281 129.371094 311.058594 C 127.425781 309.34375 125.195312 309.746094 123.050781 309.695312 C 115.058594 309.5 107.054688 309.394531 99.0625 309.257812 C 94.613281 309.171875 90.152344 309.257812 85.722656 308.957031 C 80.628906 308.558594 75.566406 307.730469 70.492188 307.105469 C 68.4375 306.851562 66.382812 306.503906 64.320312 306.425781 C 57.4375 306.179688 50.53125 306.09375 43.640625 305.839844 C 39.238281 305.675781 37.796875 303.894531 37.699219 298.253906 C 37.574219 291.441406 37.523438 284.625 37.699219 277.808594 C 37.8125 274.980469 38.261719 272.210938 39.054688 269.492188 C 39.671875 266.960938 39.996094 264.390625 40.027344 261.78125 C 40.164062 258.550781 40.242188 255.296875 40.308594 252.042969 C 40.378906 249.183594 40.582031 246.4375 41.847656 243.894531 C 42.402344 242.613281 42.691406 241.269531 42.714844 239.875 C 42.949219 235.003906 42.957031 230.089844 43.222656 225.21875 C 43.347656 222.84375 43.414062 220.207031 44.253906 218.210938 C 45.625 214.929688 45.460938 211.53125 45.617188 208.132812 C 45.878906 202.183594 45.996094 196.222656 46.289062 190.273438 C 46.355469 187.980469 46.890625 185.796875 47.894531 183.730469 C 48.179688 182.996094 48.324219 182.234375 48.324219 181.445312 C 48.484375 178.339844 48.617188 175.234375 48.722656 172.125 C 48.730469 169.164062 49.308594 166.316406 50.457031 163.585938 C 50.894531 162.453125 51.148438 161.285156 51.214844 160.070312 C 51.496094 157.152344 51.632812 154.230469 51.886719 151.308594 C 51.984375 149.691406 52.472656 148.199219 53.355469 146.839844 C 53.691406 146.234375 53.875 145.582031 53.910156 144.890625 C 54.28125 141.550781 54.542969 138.183594 54.972656 134.851562 C 55.222656 133.628906 55.546875 132.425781 55.945312 131.242188 C 56.316406 130.007812 56.609375 128.761719 56.824219 127.492188 C 57.105469 125.164062 57.125 122.78125 57.496094 120.480469 C 57.839844 118.976562 58.289062 117.503906 58.847656 116.0625 C 59.183594 115.191406 59.449219 114.304688 59.648438 113.394531 C 60.007812 111.222656 60.164062 108.992188 60.621094 106.851562 C 60.84375 105.691406 61.59375 104.699219 61.855469 103.550781 C 62.207031 102.070312 62.484375 100.578125 62.683594 99.070312 C 63.054688 96.683594 63.367188 94.289062 63.726562 91.90625 C 63.75 91.597656 63.855469 91.324219 64.039062 91.078125 C 65.332031 89.714844 65.363281 87.746094 65.539062 85.867188 C 65.730469 83.652344 66.378906 81.582031 67.484375 79.65625 C 67.863281 78.824219 68.078125 77.949219 68.128906 77.035156 C 68.292969 75.632812 68.3125 74.203125 68.417969 72.792969 C 68.542969 70.558594 69.074219 68.425781 70.015625 66.394531 C 70.515625 65.109375 70.863281 63.78125 71.046875 62.410156 C 71.175781 61.671875 71.246094 60.925781 71.261719 60.171875 C 71.574219 55.867188 74.40625 54.039062 76.675781 53.929688 C 77.800781 53.789062 78.902344 53.882812 79.984375 54.214844 C 81.070312 54.546875 82.035156 55.082031 82.886719 55.828125 C 83.589844 56.359375 84.375 56.621094 85.253906 56.617188 C 88.175781 56.84375 91.175781 56.910156 94.132812 57.09375 C 96.730469 57.359375 99.210938 58.046875 101.574219 59.148438 C 103.628906 59.824219 105.738281 60.121094 107.902344 60.035156 C 115.039062 60.269531 122.175781 60.464844 129.324219 60.492188 C 134.835938 60.503906 140.234375 61.304688 145.515625 62.890625 C 147.132812 63.308594 148.773438 63.492188 150.441406 63.445312 C 168.445312 63.492188 186.46875 63.601562 204.433594 63.445312 C 209.300781 63.394531 214.167969 62.371094 219.039062 61.847656 C 222.980469 61.417969 226.933594 60.875 230.886719 60.71875 C 237.703125 60.394531 244.519531 60.289062 251.335938 60.144531 C 254.75 60.066406 258.226562 60.144531 261.410156 58.390625 C 264.800781 56.570312 268.324219 57.132812 271.800781 56.675781 C 272.773438 56.550781 273.75 56.570312 274.722656 56.519531 C 276.992188 56.511719 279.136719 55.992188 281.15625 54.964844 C 282.714844 54.199219 284.355469 53.757812 286.085938 53.640625 C 289.851562 53.199219 293.640625 52.859375 297.417969 52.664062 C 300.230469 52.539062 302.453125 54.808594 303.261719 58.285156 C 303.472656 59.257812 303.5625 60.230469 303.746094 61.144531 C 304.019531 62.558594 304.339844 63.960938 304.644531 65.363281 C 304.761719 65.78125 304.859375 66.207031 304.933594 66.636719 C 305.382812 71.105469 306.726562 75.402344 306.726562 79.949219 C 306.886719 80.800781 307.160156 81.609375 307.554688 82.382812 C 308.058594 83.601562 308.460938 84.855469 308.761719 86.140625 C 309.050781 87.980469 309.234375 89.828125 309.316406 91.691406 C 309.449219 93.25 309.871094 94.726562 310.582031 96.121094 C 311.171875 97.3125 311.554688 98.570312 311.722656 99.886719 C 312.042969 102.878906 312.089844 105.914062 312.363281 108.914062 C 312.535156 109.78125 312.792969 110.617188 313.144531 111.425781 C 313.675781 112.789062 314.074219 114.1875 314.339844 115.625 C 314.699219 119.234375 314.835938 122.878906 315.0625 126.507812 C 315.140625 127.851562 315.464844 129.128906 316.035156 130.34375 C 316.714844 132 317.125 133.722656 317.269531 135.503906 C 317.621094 138.632812 317.699219 141.796875 318.011719 144.921875 C 318.210938 145.953125 318.507812 146.953125 318.898438 147.929688 C 319.367188 149.230469 319.730469 150.5625 319.976562 151.921875 C 320.359375 155.347656 320.550781 158.804688 320.824219 162.261719 C 320.976562 163.539062 321.300781 164.769531 321.800781 165.953125 C 322.496094 168.023438 322.933594 170.148438 323.105469 172.328125 C 323.414062 175.59375 323.425781 178.894531 323.589844 182.175781 C 323.625 184.0625 324.054688 185.859375 324.875 187.558594 C 325.425781 188.941406 325.722656 190.375 325.773438 191.863281 C 326.0625 195.074219 326.160156 198.328125 326.464844 201.550781 C 326.605469 202.753906 326.90625 203.914062 327.367188 205.035156 C 328.246094 207.636719 328.691406 210.3125 328.703125 213.058594 C 328.925781 217.273438 329.09375 221.492188 329.335938 225.714844 C 329.398438 226.394531 329.570312 227.042969 329.851562 227.664062 C 330.839844 230.128906 331.355469 232.691406 331.398438 235.347656 C 331.574219 238.976562 331.664062 242.621094 331.808594 246.261719 C 331.832031 247.640625 331.929688 249.011719 332.089844 250.378906 C 332.226562 251.351562 332.636719 252.238281 332.851562 253.195312 C 333.476562 255.460938 333.953125 257.757812 334.273438 260.085938 C 334.601562 263.980469 334.613281 267.984375 334.75 271.9375 C 334.800781 273.332031 335.109375 274.664062 335.675781 275.9375 C 336.320312 277.691406 336.75 279.496094 336.96875 281.351562 C 337.0625 282.652344 337.0625 283.949219 336.96875 285.246094 Z M 337.398438 285.316406 " fill-opacity="1" fill-rule="nonzero"/></g></svg>