<svg xmlns="http://www.w3.org/2000/svg" xmlns:xlink="http://www.w3.org/1999/xlink" width="500" zoomAndPan="magnify" viewBox="0 0 375 374.999991" height="500" preserveAspectRatio="xMidYMid meet" version="1.0"><defs><clipPath id="c4f4ebedce"><path d="M 37.5 62 L 337.5 62 L 337.5 314 L 37.5 314 Z M 37.5 62 " clip-rule="nonzero"/></clipPath></defs><g clip-path="url(#c4f4ebedce)"><path fill="#a49694" d="M 41.109375 284.351562 C 57.265625 291.105469 73.808594 296.707031 90.746094 301.15625 L 91.625 301.15625 C 112.847656 306.714844 134.390625 310.359375 156.261719 312.082031 L 156.570312 312.082031 C 166.882812 312.910156 177.085938 313.320312 187.191406 313.320312 L 187.5 313.320312 C 198.496094 313.320312 209.390625 312.839844 220.179688 311.878906 C 220.59375 311.953125 221.003906 311.953125 221.417969 311.878906 L 221.726562 311.878906 C 222.328125 311.820312 222.914062 311.683594 223.480469 311.464844 C 243.933594 309.683594 264.105469 306.246094 283.996094 301.15625 C 284.476562 301.261719 284.957031 301.261719 285.4375 301.15625 L 286.3125 301.15625 C 287.394531 300.96875 288.308594 300.472656 289.046875 299.660156 C 304.28125 295.441406 319.199219 290.285156 333.789062 284.199219 C 334.367188 283.976562 334.886719 283.664062 335.351562 283.253906 C 335.816406 282.847656 336.195312 282.371094 336.488281 281.828125 C 336.78125 281.285156 336.972656 280.707031 337.054688 280.09375 C 337.140625 279.480469 337.117188 278.871094 336.984375 278.269531 L 280.746094 96.515625 C 281.710938 95.289062 282.453125 93.9375 282.964844 92.464844 C 283.476562 90.988281 283.734375 89.46875 283.738281 87.910156 L 283.738281 76 C 283.734375 75.09375 283.644531 74.199219 283.464844 73.308594 C 283.289062 72.417969 283.023438 71.554688 282.679688 70.71875 C 282.332031 69.878906 281.910156 69.085938 281.410156 68.328125 C 280.90625 67.574219 280.339844 66.875 279.699219 66.230469 C 279.0625 65.585938 278.371094 65.007812 277.621094 64.5 C 276.871094 63.988281 276.078125 63.554688 275.246094 63.199219 C 274.410156 62.84375 273.550781 62.574219 272.664062 62.386719 C 271.777344 62.199219 270.878906 62.097656 269.972656 62.082031 L 105.027344 62.082031 C 104.113281 62.082031 103.207031 62.171875 102.3125 62.351562 C 101.414062 62.53125 100.542969 62.792969 99.699219 63.144531 C 98.855469 63.492188 98.054688 63.921875 97.292969 64.429688 C 96.535156 64.9375 95.832031 65.515625 95.183594 66.160156 C 94.539062 66.804688 93.960938 67.507812 93.453125 68.269531 C 92.945312 69.027344 92.515625 69.832031 92.167969 70.675781 C 91.816406 71.519531 91.554688 72.390625 91.375 73.285156 C 91.199219 74.183594 91.109375 75.085938 91.109375 76 L 91.109375 87.910156 C 91.097656 89.464844 91.351562 90.976562 91.863281 92.445312 C 92.378906 93.914062 93.121094 95.253906 94.097656 96.464844 L 38.015625 278.269531 C 37.859375 278.878906 37.8125 279.496094 37.882812 280.117188 C 37.949219 280.742188 38.125 281.335938 38.410156 281.894531 C 38.695312 282.457031 39.070312 282.949219 39.535156 283.371094 C 40 283.792969 40.523438 284.121094 41.109375 284.351562 Z M 88.480469 290.074219 L 121.210938 101.824219 L 131.519531 101.824219 L 98.375 292.546875 C 94.714844 291.824219 91.675781 290.847656 88.480469 290.074219 Z M 151.933594 301.773438 L 163.941406 101.824219 L 173.941406 101.824219 L 161.726562 302.546875 Z M 216.109375 302.394531 L 204.046875 101.824219 L 214.046875 101.824219 L 226.058594 301.464844 C 222.757812 301.824219 219.40625 302.136719 216.109375 302.394531 Z M 279.664062 292.082031 L 246.625 101.824219 L 256.933594 101.824219 L 289.304688 289.300781 C 286.109375 290.226562 282.914062 291.105469 279.664062 291.878906 Z M 279.664062 292.082031 " fill-opacity="1" fill-rule="nonzero"/></g></svg>