<svg xmlns="http://www.w3.org/2000/svg" xmlns:xlink="http://www.w3.org/1999/xlink" width="500" zoomAndPan="magnify" viewBox="0 0 375 374.999991" height="500" preserveAspectRatio="xMidYMid meet" version="1.0"><defs><clipPath id="904131d06e"><path d="M 37.5 44.046875 L 337.5 44.046875 L 337.5 331 L 37.5 331 Z M 37.5 44.046875 " clip-rule="nonzero"/></clipPath></defs><g clip-path="url(#904131d06e)"><path fill="#a49694" d="M 287.996094 44.046875 C 292.808594 44.167969 297.625 44.296875 302.4375 44.398438 C 304.210938 44.398438 305.992188 44.398438 307.765625 44.472656 C 309.09375 44.492188 310.386719 44.710938 311.644531 45.132812 C 312.101562 45.292969 312.519531 45.519531 312.902344 45.808594 C 313.289062 46.097656 313.621094 46.441406 313.898438 46.832031 C 314.179688 47.222656 314.394531 47.648438 314.542969 48.105469 C 314.691406 48.5625 314.769531 49.03125 314.773438 49.515625 C 314.867188 51.882812 314.90625 54.269531 314.773438 56.636719 C 314.542969 60.582031 314.144531 64.507812 313.847656 68.445312 C 313.828125 68.796875 313.773438 69.144531 313.679688 69.484375 C 312.609375 73.238281 312.078125 77.066406 312.082031 80.972656 C 312.007812 82.828125 312.082031 84.601562 312 86.421875 C 312.003906 87.050781 311.914062 87.671875 311.738281 88.277344 C 311.316406 89.804688 311.335938 91.324219 311.792969 92.835938 C 312.277344 94.855469 312.171875 96.84375 311.46875 98.796875 C 311.101562 100.113281 310.878906 101.453125 310.800781 102.816406 C 310.09375 109.277344 310.273438 115.710938 311.339844 122.121094 C 311.953125 126.234375 312.175781 130.410156 312.871094 134.507812 C 313.660156 139.148438 314.730469 143.746094 315.75 148.339844 C 316.503906 151.785156 317.328125 155.210938 318.191406 158.628906 C 318.507812 159.863281 319.007812 161.0625 319.4375 162.269531 C 319.558594 162.59375 319.75 162.890625 319.855469 163.195312 C 320.671875 165.890625 321.449219 168.601562 322.304688 171.285156 C 322.65625 172.371094 323.148438 173.410156 323.578125 174.476562 C 323.753906 174.921875 323.929688 175.40625 324.117188 175.824219 C 324.597656 176.976562 325.089844 178.125 325.5625 179.277344 C 325.785156 179.824219 325.964844 180.390625 326.214844 180.929688 C 326.640625 181.859375 327.140625 182.789062 327.558594 183.714844 C 327.800781 184.25 328.007812 184.800781 328.183594 185.359375 C 328.292969 186.15625 328.515625 186.921875 328.851562 187.652344 C 329.703125 188.960938 330.203125 190.390625 330.355469 191.941406 C 330.394531 192.183594 330.460938 192.414062 330.558594 192.636719 C 331.542969 194.78125 332.648438 196.871094 333.484375 199.074219 C 334.105469 200.816406 334.585938 202.597656 334.921875 204.421875 C 335.785156 208.476562 336.621094 212.542969 337.347656 216.628906 C 337.484375 217.785156 337.449219 218.933594 337.246094 220.074219 C 337.046875 222.449219 336.652344 224.789062 336.054688 227.09375 C 335.304688 228.945312 334.359375 230.691406 333.214844 232.332031 C 332.609375 233.417969 331.910156 234.441406 331.125 235.402344 C 329.796875 236.964844 328.339844 238.457031 326.929688 239.90625 C 324.878906 241.941406 322.804688 243.972656 320.652344 245.886719 C 318.667969 247.726562 316.5 249.320312 314.152344 250.667969 C 313.5 251.105469 312.882812 251.585938 312.296875 252.105469 C 310.800781 253.25 309.203125 254.261719 307.820312 255.523438 C 305.398438 257.722656 302.835938 259.785156 300.996094 262.609375 C 299.964844 264.195312 298.609375 265.5625 297.449219 267.066406 C 296.445312 268.375 295.527344 269.75 294.523438 271.058594 C 293.800781 271.984375 292.957031 272.914062 292.269531 273.890625 C 290.960938 275.746094 289.769531 277.789062 288.445312 279.683594 C 286.855469 281.976562 285.136719 284.167969 283.570312 286.46875 C 282.566406 287.917969 281.769531 289.515625 280.785156 291 C 278.597656 294.613281 276.1875 298.066406 273.550781 301.363281 C 273.328125 301.671875 273.144531 301.996094 272.992188 302.347656 C 272.371094 303.488281 271.796875 304.667969 271.136719 305.78125 C 269.679688 308.175781 268.257812 310.589844 266.660156 312.886719 C 265.527344 314.5 264.425781 316.226562 262.492188 317.042969 C 262.457031 317.050781 262.425781 317.066406 262.398438 317.089844 C 260.960938 318.121094 259.558594 319.207031 258.082031 320.171875 C 257.125 320.878906 256.082031 321.429688 254.960938 321.828125 C 253.597656 322.226562 252.175781 322.363281 250.96875 323.273438 C 249.457031 324.433594 247.570312 324.109375 245.84375 324.445312 C 244.082031 324.679688 242.386719 325.15625 240.757812 325.875 C 239.375 326.488281 237.929688 326.851562 236.421875 326.96875 C 234.015625 327.25 231.582031 327.257812 229.160156 327.480469 C 228.488281 327.644531 227.855469 327.894531 227.257812 328.242188 C 226.53125 328.671875 225.757812 328.980469 224.9375 329.171875 C 221.492188 329.382812 218.046875 329.46875 214.59375 329.570312 C 208.492188 329.765625 202.382812 329.875 196.285156 330.136719 C 193.839844 330.246094 191.417969 330.804688 188.976562 330.886719 C 186.535156 330.972656 183.878906 330.796875 181.335938 330.664062 C 179.394531 330.574219 177.453125 330.320312 175.511719 330.246094 C 171.6875 330.097656 167.863281 330.082031 164.039062 329.902344 C 162.027344 329.800781 160.03125 329.582031 158.046875 329.246094 C 157.1875 329.09375 156.417969 328.738281 155.746094 328.175781 C 154.925781 327.546875 153.996094 327.238281 152.960938 327.25 C 151.949219 327.117188 150.9375 326.988281 149.941406 326.765625 C 147.890625 326.300781 146.75 324.59375 145.457031 323.136719 C 144.28125 321.875 143.257812 320.5 142.386719 319.011719 C 141.015625 316.53125 140.121094 313.886719 139.691406 311.082031 C 139.363281 308.660156 139.242188 306.222656 139.332031 303.777344 C 139.492188 300.707031 140.464844 297.921875 142.253906 295.421875 C 142.835938 294.367188 143.578125 293.4375 144.472656 292.636719 C 146.261719 291.269531 148.136719 290.03125 150.089844 288.921875 C 151.289062 288.25 152.554688 287.757812 153.890625 287.445312 C 156.628906 286.785156 158.988281 284.890625 161.929688 284.902344 C 162.292969 284.902344 162.710938 284.511719 162.996094 284.195312 C 163.539062 283.421875 164.28125 282.972656 165.214844 282.847656 C 166.238281 282.847656 166.738281 282.042969 167.34375 281.382812 C 167.617188 281.03125 167.964844 280.777344 168.382812 280.621094 C 170.171875 280.167969 171.75 279.324219 173.117188 278.085938 C 174.277344 277.023438 175.511719 276.0625 176.832031 275.207031 C 177.847656 274.628906 178.703125 273.867188 179.394531 272.921875 C 179.691406 272.503906 180.324219 272.367188 180.722656 271.996094 C 182.078125 270.6875 183.394531 269.332031 184.707031 267.984375 C 186.015625 266.636719 187.128906 265.488281 188.296875 264.195312 C 189.226562 263.128906 190.210938 262.042969 191.082031 260.890625 C 192.484375 259.035156 193.785156 257.074219 195.195312 255.207031 C 196.609375 253.34375 198.335938 251.375 199.765625 249.359375 C 200.84375 247.855469 201.621094 246.15625 202.644531 244.578125 C 203.808594 242.5 205.113281 240.515625 206.5625 238.625 C 208.417969 236.433594 209.234375 233.816406 210.277344 231.253906 C 210.363281 231.101562 210.414062 230.933594 210.421875 230.757812 C 210.433594 230.582031 210.402344 230.410156 210.328125 230.25 C 210.257812 230.085938 210.152344 229.949219 210.015625 229.835938 C 209.878906 229.722656 209.722656 229.648438 209.550781 229.609375 C 209.082031 229.394531 208.585938 229.285156 208.070312 229.285156 C 207.554688 229.285156 207.058594 229.394531 206.589844 229.609375 C 203.804688 230.761719 201.019531 231.820312 198.234375 232.933594 C 197.914062 233.117188 197.601562 233.3125 197.304688 233.527344 C 196.808594 233.875 196.273438 234.148438 195.699219 234.34375 C 194.417969 234.714844 193.109375 234.9375 191.78125 235.023438 C 190.292969 235.023438 189.328125 236.117188 188.066406 236.574219 C 187.054688 236.9375 185.976562 237.140625 184.9375 237.4375 C 183.703125 237.78125 182.46875 238.160156 181.222656 238.496094 C 179.367188 239.023438 177.433594 239.554688 175.53125 240.019531 C 174.859375 240.164062 174.179688 240.226562 173.488281 240.203125 C 171.507812 240.230469 169.652344 240.722656 167.917969 241.679688 C 167.058594 242.105469 166.15625 242.382812 165.207031 242.507812 C 164.332031 242.652344 163.621094 243.074219 163.070312 243.769531 C 162.675781 244.195312 162.207031 244.503906 161.660156 244.699219 C 160.667969 245.03125 159.617188 245.21875 158.605469 245.503906 C 158.296875 245.5625 158.042969 245.707031 157.835938 245.941406 C 157.148438 246.9375 156.222656 247.582031 155.050781 247.875 C 154.667969 248.007812 154.328125 248.214844 154.027344 248.484375 C 153.371094 249.0625 152.785156 249.730469 152.097656 250.257812 C 150.851562 251.1875 149.5625 252.117188 148.289062 253.046875 C 148.230469 253.078125 148.175781 253.121094 148.132812 253.175781 C 146.898438 255.644531 144.09375 256.675781 142.878906 259.183594 C 142.710938 259.535156 142.320312 259.777344 142.050781 260.109375 C 141.253906 261.09375 140.417969 262.042969 139.691406 263.074219 C 138.679688 264.464844 137.75 265.910156 136.90625 267.410156 C 136.25 268.617188 135.933594 270.015625 135.339844 271.261719 C 134.1875 273.703125 133.027344 276.15625 131.71875 278.503906 C 130.789062 280.121094 129.628906 281.578125 128.578125 283.144531 C 128.378906 283.386719 128.214844 283.648438 128.085938 283.933594 C 127.472656 285.792969 125.953125 286.988281 124.679688 288.269531 C 123 289.953125 120.796875 290.878906 118.671875 291.929688 C 116.277344 293.097656 113.761719 293.230469 111.246094 293.480469 C 107.816406 293.824219 104.363281 294.027344 100.964844 294.546875 C 92.609375 295.839844 84.253906 295.476562 75.898438 294.929688 C 71.070312 294.601562 66.25 294.195312 61.433594 293.824219 C 58.777344 293.621094 56.128906 293.441406 53.484375 293.191406 C 52.941406 293.117188 52.464844 292.898438 52.054688 292.53125 C 51.355469 291.761719 50.492188 291.339844 49.453125 291.269531 C 46.53125 291.269531 44.8125 289.253906 43.253906 287.109375 C 42.890625 286.628906 42.324219 286.304688 41.972656 285.800781 C 41.117188 284.632812 40.339844 283.417969 39.640625 282.152344 C 39.171875 281.140625 38.777344 280.101562 38.453125 279.03125 C 37.960938 277.765625 37.730469 276.449219 37.769531 275.089844 C 37.804688 273.726562 38.105469 272.425781 38.664062 271.1875 C 38.996094 270.492188 39.234375 269.761719 39.378906 269.003906 C 39.882812 266.171875 41.851562 264.363281 43.773438 262.636719 C 44.320312 262.125 45.265625 262.089844 45.878906 261.632812 C 47.957031 260.285156 50.207031 259.378906 52.640625 258.914062 C 54.359375 258.355469 56.039062 257.6875 57.671875 256.90625 C 57.804688 256.867188 57.917969 256.796875 58.015625 256.695312 C 59.195312 255.097656 60.882812 254.78125 62.65625 254.492188 C 63.882812 254.4375 64.914062 253.964844 65.757812 253.074219 C 66.183594 252.640625 66.699219 252.394531 67.300781 252.328125 C 68.734375 252.007812 69.988281 251.347656 71.070312 250.351562 C 71.636719 249.925781 72.332031 249.683594 72.925781 249.273438 C 75.304688 247.621094 77.71875 245.996094 80.019531 244.234375 C 81.171875 243.296875 82.21875 242.257812 83.167969 241.113281 C 84.355469 239.777344 85.46875 238.382812 86.511719 236.925781 C 87.566406 235.402344 88.496094 233.777344 89.460938 232.191406 C 90.296875 230.796875 91.097656 229.40625 91.941406 228.003906 C 93.066406 226.148438 94.167969 224.335938 95.375 222.5625 C 96.304688 221.253906 97.296875 220.054688 98.265625 218.847656 C 98.535156 218.488281 98.804688 218.125 99.035156 217.746094 C 99.964844 216.242188 100.835938 214.726562 101.746094 213.222656 C 102.65625 211.71875 103.398438 210.4375 104.253906 209.042969 C 105.246094 207.457031 106.332031 205.945312 107.253906 204.320312 C 108.710938 201.738281 109.945312 199.015625 111.503906 196.511719 C 112.359375 195.136719 112.90625 193.667969 113.613281 192.25 C 114.359375 191.046875 115.179688 189.898438 116.074219 188.804688 C 116.480469 188.160156 116.828125 187.484375 117.121094 186.78125 C 118.246094 184.320312 119.367188 181.867188 120.472656 179.398438 C 120.761719 178.765625 120.917969 178.078125 121.207031 177.449219 C 122.804688 173.921875 124.449219 170.410156 126.015625 166.875 C 126.394531 165.863281 126.71875 164.835938 126.992188 163.789062 C 127.425781 162.472656 127.917969 161.152344 128.328125 159.835938 C 128.382812 159.707031 128.429688 159.578125 128.46875 159.445312 C 129.394531 154.589844 131.253906 149.929688 131.09375 144.851562 C 131.011719 142.0625 131.363281 139.1875 131.382812 136.355469 C 131.382812 133.734375 131.242188 131.117188 131.121094 128.5 C 130.929688 124.199219 130.796875 119.902344 130.445312 115.621094 C 130.25 113.335938 129.515625 111.109375 129.257812 108.816406 C 128.867188 105.519531 128.753906 102.1875 128.382812 98.890625 C 128.179688 97.035156 127.6875 95.261719 127.335938 93.449219 C 126.519531 89.335938 125.757812 85.222656 124.882812 81.128906 C 124.402344 78.84375 123.742188 76.605469 123.15625 74.339844 C 122.734375 72.726562 122.3125 71.109375 121.882812 69.496094 C 121.496094 68.007812 121.414062 66.503906 121.648438 64.984375 C 121.878906 63.464844 122.40625 62.050781 123.222656 60.75 C 124.058594 59.347656 124.855469 58.019531 126.5 57.488281 C 126.921875 57.3125 127.277344 57.042969 127.558594 56.683594 C 128.128906 56.054688 128.804688 55.5625 129.578125 55.210938 C 130.351562 54.859375 131.164062 54.675781 132.015625 54.65625 C 132.59375 54.636719 133.171875 54.578125 133.742188 54.472656 C 134.207031 54.308594 134.652344 54.097656 135.078125 53.839844 C 135.777344 53.371094 136.527344 53 137.324219 52.734375 C 138.96875 52.4375 140.640625 52.363281 142.3125 52.199219 C 144.167969 52.019531 145.921875 51.910156 147.558594 50.796875 C 148.441406 50.382812 149.371094 50.222656 150.34375 50.3125 C 158.632812 50.21875 166.933594 50.136719 175.234375 50.128906 C 177.480469 50.128906 179.738281 50.359375 181.976562 50.5625 C 182.675781 50.71875 183.359375 50.925781 184.027344 51.183594 C 185.699219 51.613281 187.378906 52.113281 189.078125 52.382812 C 190.15625 52.613281 191 53.1875 191.613281 54.101562 C 193.46875 56.328125 193.332031 59.058594 193.527344 61.660156 C 193.738281 64.59375 193.703125 67.535156 193.785156 70.46875 C 193.933594 75.113281 194.082031 79.699219 194.257812 84.3125 C 194.328125 84.761719 194.421875 85.203125 194.539062 85.640625 C 194.769531 86.449219 194.839844 87.273438 194.742188 88.109375 C 194.257812 89.726562 194.742188 91.203125 194.945312 92.753906 C 195.203125 94.195312 195.320312 95.652344 195.300781 97.117188 C 195.246094 99.253906 195.480469 101.359375 196.003906 103.429688 C 196.597656 105.976562 196.820312 108.601562 197.285156 111.175781 C 197.554688 112.679688 198.039062 114.136719 198.316406 115.640625 C 198.707031 117.765625 198.9375 119.921875 199.355469 122.039062 C 199.617188 123.394531 200.082031 124.703125 200.472656 126.03125 C 200.664062 126.699219 200.90625 127.347656 201.113281 128.015625 C 201.214844 128.3125 201.25 128.628906 201.363281 128.945312 C 202.050781 131.125 202.859375 133.261719 203.785156 135.351562 C 204.628906 137.085938 205.15625 138.914062 205.375 140.828125 C 205.40625 141.113281 205.496094 141.378906 205.652344 141.617188 C 206.746094 143.167969 206.914062 145.054688 207.507812 146.800781 C 208.316406 149.269531 209.367188 151.65625 210.292969 154.097656 C 210.5625 154.8125 210.75 155.554688 211.019531 156.28125 C 211.425781 157.414062 211.871094 158.535156 212.308594 159.660156 C 212.429688 159.984375 212.613281 160.28125 212.734375 160.585938 C 213.554688 162.917969 214.296875 165.277344 215.207031 167.578125 C 216.207031 170.113281 217.359375 172.59375 218.445312 175.089844 C 218.53125 175.285156 218.640625 175.472656 218.707031 175.664062 C 219.542969 178.125 220.246094 180.640625 221.25 183.039062 C 222.234375 185.648438 223.015625 188.320312 223.589844 191.050781 C 224.066406 192.578125 224.644531 194.066406 225.324219 195.515625 C 225.585938 196.167969 225.882812 196.082031 226.414062 195.738281 C 226.996094 195.320312 227.476562 194.808594 227.859375 194.199219 C 228.242188 193.59375 228.496094 192.9375 228.621094 192.230469 C 228.882812 191.226562 229.394531 190.289062 229.691406 189.296875 C 230.078125 187.957031 230.347656 186.59375 230.71875 185.257812 C 230.988281 184.28125 231.359375 183.34375 231.648438 182.378906 C 232 181.105469 232.269531 179.808594 232.578125 178.527344 C 232.882812 177.246094 233.328125 175.738281 233.710938 174.300781 C 233.765625 174.070312 233.859375 173.835938 233.933594 173.605469 C 234.675781 171.191406 234.777344 168.601562 235.996094 166.289062 C 236.367188 165.222656 236.542969 164.128906 236.523438 163 C 236.605469 161.101562 237.042969 159.28125 237.832031 157.550781 C 238.191406 156.5625 238.410156 155.546875 238.492188 154.496094 C 238.898438 152.378906 239.375 150.273438 239.679688 148.136719 C 240.050781 145.574219 240.414062 143.003906 240.542969 140.429688 C 240.867188 133.855469 241.183594 127.292969 241.269531 120.71875 C 241.324219 116.734375 240.90625 112.753906 240.746094 108.761719 C 240.582031 104.535156 240.507812 100.300781 240.347656 96.078125 C 240.285156 94.21875 240.152344 92.296875 239.988281 90.421875 C 239.882812 89.769531 239.726562 89.128906 239.523438 88.5 C 239.335938 87.785156 239.09375 87.089844 238.964844 86.375 C 238.363281 83.078125 237.648438 79.800781 237.246094 76.488281 C 236.53125 70.929688 236.382812 65.359375 236.800781 59.773438 C 236.875 58.84375 237.730469 57.917969 238.121094 56.988281 C 238.402344 56.386719 238.808594 55.890625 239.339844 55.492188 C 239.871094 55.09375 240.464844 54.84375 241.121094 54.742188 C 241.734375 54.492188 242.300781 54.167969 242.828125 53.765625 C 243.398438 53.34375 244.015625 53.007812 244.683594 52.765625 C 245.984375 52.476562 247.332031 52.449219 248.628906 52.160156 C 249.269531 51.941406 249.859375 51.632812 250.402344 51.230469 C 250.976562 50.808594 251.59375 50.464844 252.261719 50.210938 C 253.710938 49.859375 255.214844 49.738281 256.679688 49.421875 C 257.230469 49.210938 257.746094 48.945312 258.230469 48.613281 C 258.902344 48.171875 259.621094 47.839844 260.394531 47.621094 C 262.25 47.371094 264.109375 47.3125 265.964844 47.183594 C 267.507812 47.046875 268.929688 46.566406 270.234375 45.734375 C 271.488281 45.066406 272.828125 44.71875 274.246094 44.695312 C 278.816406 44.472656 283.394531 44.425781 287.96875 44.304688 Z M 287.996094 44.046875 " fill-opacity="1" fill-rule="nonzero"/></g></svg>