<svg xmlns="http://www.w3.org/2000/svg" xmlns:xlink="http://www.w3.org/1999/xlink" width="500" zoomAndPan="magnify" viewBox="0 0 375 374.999991" height="500" preserveAspectRatio="xMidYMid meet" version="1.0"><defs><clipPath id="954df751eb"><path d="M 86.316406 37.5 L 288.816406 37.5 L 288.816406 337.5 L 86.316406 337.5 Z M 86.316406 37.5 " clip-rule="nonzero"/></clipPath></defs><g clip-path="url(#954df751eb)"><path fill="#4b4237" d="M 288.59375 327.421875 C 288.691406 332.917969 284.109375 337.398438 278.515625 337.398438 L 96.515625 337.398438 C 90.921875 337.398438 86.34375 332.917969 86.4375 327.421875 C 86.828125 305.382812 93.578125 285.535156 100.925781 270.316406 C 112.140625 247.105469 113.535156 220.46875 105.253906 196.101562 L 96.503906 170.367188 L 92.71875 160.191406 C 91.3125 156.417969 92.941406 152.214844 96.480469 150.304688 C 96.488281 150.304688 96.488281 150.296875 96.492188 150.296875 C 106.433594 144.800781 115.351562 136.871094 120.859375 126.847656 C 130.558594 109.214844 125.160156 91.019531 121.898438 72.425781 C 120.910156 66.773438 119.914062 61.121094 118.921875 55.464844 C 118.507812 53.125 118.101562 50.789062 117.6875 48.449219 C 117.28125 46.140625 117.421875 44.136719 118.519531 42.0625 C 119.53125 40.148438 121.464844 38.902344 123.472656 38.253906 C 125.464844 37.609375 128.082031 38.050781 129.855469 39.085938 C 131.492188 40.046875 133.324219 42.105469 133.664062 44.039062 C 133.675781 44.082031 133.683594 44.117188 133.6875 44.160156 C 134.277344 47.015625 134.699219 49.921875 135.203125 52.796875 C 136.242188 58.683594 137.269531 64.574219 138.304688 70.460938 C 140.953125 85.535156 141.398438 101.988281 152.398438 113.71875 C 161.328125 123.234375 174.746094 128.941406 187.511719 128.941406 C 200.277344 128.941406 213.691406 123.242188 222.621094 113.71875 C 233.625 101.988281 234.066406 85.535156 236.714844 70.460938 C 237.75 64.574219 238.78125 58.683594 239.816406 52.796875 C 240.320312 49.921875 240.738281 47.015625 241.332031 44.160156 C 241.34375 44.117188 241.347656 44.082031 241.355469 44.039062 C 241.695312 42.105469 243.535156 40.039062 245.164062 39.085938 C 246.941406 38.050781 249.558594 37.609375 251.546875 38.253906 C 253.554688 38.90625 255.488281 40.148438 256.5 42.0625 C 257.597656 44.140625 257.738281 46.140625 257.332031 48.449219 C 256.917969 50.789062 256.511719 53.125 256.097656 55.464844 C 255.109375 61.121094 254.117188 66.773438 253.121094 72.425781 C 249.859375 91.019531 244.46875 109.214844 254.160156 126.847656 C 259.667969 136.878906 268.585938 144.800781 278.527344 150.296875 C 278.53125 150.296875 278.53125 150.304688 278.539062 150.304688 C 282.078125 152.214844 283.699219 156.417969 282.300781 160.191406 L 278.515625 170.367188 L 269.765625 196.101562 C 261.484375 220.472656 262.878906 247.113281 274.09375 270.316406 C 281.449219 285.535156 288.199219 305.382812 288.59375 327.421875 Z M 288.59375 327.421875 " fill-opacity="1" fill-rule="nonzero"/></g></svg>