<svg xmlns="http://www.w3.org/2000/svg" xmlns:xlink="http://www.w3.org/1999/xlink" width="500" zoomAndPan="magnify" viewBox="0 0 375 374.999991" height="500" preserveAspectRatio="xMidYMid meet" version="1.0"><defs><clipPath id="0b767e9a52"><path d="M 37.5 49 L 337.5 49 L 337.5 326 L 37.5 326 Z M 37.5 49 " clip-rule="nonzero"/></clipPath></defs><g clip-path="url(#0b767e9a52)"><path fill="#a49694" d="M 257.855469 49.601562 L 223.230469 49.601562 C 215.519531 55.386719 193.589844 57.199219 187.496094 57.601562 C 181.402344 57.199219 159.476562 55.386719 151.765625 49.601562 L 117.140625 49.601562 L 37.558594 97.710938 L 69.035156 159.820312 L 93.761719 150.765625 L 93.761719 325.015625 L 281.238281 325.015625 L 281.238281 150.769531 L 305.972656 159.824219 L 337.445312 97.714844 Z M 257.855469 49.601562 " fill-opacity="1" fill-rule="nonzero"/><path fill="#a49694" d="M 257.855469 49.601562 L 223.230469 49.601562 C 215.519531 55.386719 193.589844 57.199219 187.496094 57.601562 C 181.402344 57.199219 159.476562 55.386719 151.765625 49.601562 L 117.140625 49.601562 L 37.558594 97.710938 L 69.035156 159.820312 L 93.761719 150.765625 L 93.761719 325.015625 L 281.238281 325.015625 L 281.238281 150.769531 L 305.972656 159.824219 L 337.445312 97.714844 Z M 257.855469 49.601562 " fill-opacity="1" fill-rule="nonzero"/></g></svg>